<svg width="90" height="115" viewBox="0 0 90 115" fill="none" xmlns="http://www.w3.org/2000/svg">
<path id="Vector" d="M89.8491 23.075C88.7081 16.387 77.3131 22.658 74.3231 25.363C65.0681 33.782 59.9051 45.261 55.9541 57.057C54.2461 57.505 52.5441 58 50.8531 58.476C55.0181 44.669 60.7261 31.186 69.3711 19.558C76.5721 19.247 84.8341 16.801 88.7571 10.301C90.4591 7.39904 89.7931 3.01104 86.5131 1.55404C78.5191 -1.41196 71.0361 7.87704 66.2601 13.153C54.9561 12.465 43.8731 8.51604 32.4551 9.64804C27.3881 10.169 22.3541 11.638 18.0701 14.448C10.4231 19.449 4.63507 30.328 10.2061 38.813C18.0111 49.148 33.4661 44.986 41.6681 37.27C45.7551 34.603 42.1061 28.875 38.1401 31.805C33.2461 36.409 25.7501 40.394 19.0061 37.802C8.76407 33.284 17.5371 20.45 24.9841 17.99C36.8641 13.183 49.6941 17.79 61.8001 19.193C53.2941 31.613 47.8351 45.753 43.6891 60.155C40.6881 60.605 37.6031 60.673 34.7031 59.692C32.4761 59.213 31.1411 56.533 28.7171 56.976C27.2771 57.082 26.0851 58.599 26.0851 60.11C26.3521 63.584 31.7521 65.625 34.7101 66.314C36.4441 66.736 38.1571 66.914 39.8561 66.914C40.5051 66.914 41.1521 66.882 41.7981 66.833C39.6601 74.56 37.8021 82.606 33.1671 89.218C31.2961 91.562 28.5971 93.631 25.4751 93.613C22.0961 93.775 20.8891 89.858 21.8971 87.148C22.6251 84.631 24.2961 82.388 26.5121 80.986C29.9571 78.597 26.5521 73.43 22.9881 75.652C14.2271 80.876 11.1371 96.408 22.9941 99.74C23.8131 99.844 24.6021 99.894 25.3651 99.894C40.6501 99.893 44.9351 79.818 48.7291 65.624C50.2161 65.252 51.7001 64.836 53.1841 64.416C53.3431 64.371 53.5031 64.326 53.6631 64.281C52.9911 66.502 52.3401 68.716 51.6941 70.903C49.4931 78.812 46.9851 86.745 42.7991 93.856C25.5301 123.598 -4.80293 100.492 11.1181 78.989C12.1881 77.671 13.4211 76.462 14.8701 75.563C15.8051 75.37 16.6801 74.767 17.0741 73.893C18.6321 69.898 14.1101 67.857 11.1551 70.36C6.24407 73.609 2.93408 78.902 1.22908 84.466C-3.25692 97.824 6.83907 113.398 20.9871 114.359C21.7261 114.438 22.4571 114.476 23.1831 114.476C33.0931 114.475 41.6241 107.341 46.8981 99.331C54.0531 88.184 57.0711 75.12 60.9761 62.481C62.9151 62.125 64.8651 61.898 66.8381 61.922C68.5211 62.054 70.1941 62.438 71.7181 63.179C73.3241 64.348 75.6641 64.19 76.7181 62.375C78.1231 59.918 76.0241 57.826 73.7601 57.082C70.2891 55.57 66.7601 55.298 63.2221 55.65C65.9181 48.038 69.2921 40.746 74.5071 34.316C83.1891 23.242 89.6031 29.082 89.8491 23.075ZM83.0851 7.34704C81.5591 9.78504 78.7101 10.99 76.1141 11.962C78.1991 10.157 80.3051 7.96104 83.0851 7.34704Z" fill="#FB98B7"/>
</svg>
