<svg width="148" height="181" viewBox="0 0 148 181" fill="none" xmlns="http://www.w3.org/2000/svg">
<path d="M143.048 75.5702C143.262 75.0219 143.405 74.4795 143.468 73.9479C143.501 73.6633 143.551 73.2324 143.375 72.7473C143.263 72.452 143.04 72.1937 142.781 72.0565C142.493 71.9037 142.234 71.8887 142.057 71.878C141.428 71.8565 140.798 71.9407 140.186 72.1277C139.182 72.4316 138.243 72.9869 137.314 73.8267C137.149 73.9779 136.996 74.1317 136.847 74.2855C137.148 73.026 137.413 71.7504 137.631 70.4555C137.789 69.5139 137.921 68.5738 138.032 67.6353C138.039 67.6278 138.048 67.6241 138.055 67.6166C138.37 67.2843 138.443 66.9139 138.496 66.6454C138.516 66.5248 138.535 66.4063 138.553 66.2874C138.74 66.073 138.922 65.8522 139.107 65.634C139.335 65.4432 139.508 65.2176 139.66 64.9743C139.74 64.8773 139.816 64.7776 139.894 64.68C140.55 64.612 140.607 63.9747 140.9 63.5625C141.062 63.4227 141.117 63.2453 141.143 63.0561C141.586 62.4558 142.02 61.848 142.436 61.2263L142.699 60.8243C143.346 59.836 143.957 58.9029 144.451 57.8331C144.772 57.1112 144.947 56.4584 144.989 55.8361C145.016 55.4518 144.992 55.0874 144.922 54.7621C144.882 54.5375 144.819 54.3462 144.727 54.1634C144.603 53.9051 144.363 53.6617 144.118 53.546C143.868 53.4227 143.644 53.3846 143.46 53.3664C143.274 53.3444 143.081 53.3434 142.887 53.3616C142.546 53.3911 142.196 53.4843 141.845 53.6387C141.281 53.889 140.748 54.3001 140.302 54.8285C139.549 55.7332 139.136 56.7006 138.771 57.555L138.731 57.6493C138.604 57.9618 138.487 58.2796 138.376 58.599C138.164 53.4527 137.255 48.4195 135.727 43.6001C135.748 43.5835 135.768 43.5669 135.785 43.5524L135.79 43.5476C136.177 43.1923 136.541 42.7849 136.876 42.3438C137.258 42.1102 137.453 41.6867 137.627 41.2773C137.657 41.2055 137.682 41.132 137.709 41.0597C137.863 40.7783 138.006 40.4905 138.132 40.1973C138.357 39.6758 138.541 39.1356 138.678 38.5969C138.809 38.1408 138.866 37.5979 138.827 37.1836C138.81 36.9542 138.77 36.6455 138.618 36.2891C138.518 36.0543 138.216 35.49 137.58 35.3195C137.263 35.2241 136.893 35.2466 136.596 35.3731C136.325 35.4846 136.076 35.6695 135.832 35.9418C135.494 36.3368 135.219 36.7902 134.911 37.4591C134.599 38.1537 134.405 38.9115 134.328 39.6694C126.577 20.1406 108.468 4.79652 85.4656 0.9242C51.2191 -4.84114 18.8975 16.9698 13.4147 49.5445C13.1548 51.0875 12.9608 52.6279 12.8285 54.1623C12.5691 53.3343 12.284 52.5453 11.9759 51.81C11.3665 50.3366 10.5616 48.993 9.71115 48.0299C9.51286 47.7951 9.30709 47.5914 9.10774 47.3942L9.01665 47.3042C8.94484 47.2372 8.86713 47.1702 8.78085 47.1075C8.68975 47.0394 8.53004 46.9413 8.38374 46.8893C8.08524 46.7746 7.75729 46.7805 7.48719 46.9011C7.25247 47.0013 7.04562 47.1905 6.88807 47.451C6.82055 47.5641 6.78516 47.6359 6.75086 47.7051L6.69941 47.8069C6.61849 47.9789 6.54938 48.151 6.48775 48.3311C6.2332 49.0637 6.12226 50.0215 6.19246 50.9026C6.20907 51.5431 6.4422 52.7195 6.92611 53.8992C7.17209 54.5214 7.47006 55.1624 7.7798 55.8195C8.03971 56.3705 8.39018 57.0881 8.7921 57.7474C9.47001 58.9174 10.4421 59.9303 11.2653 60.3259C11.5964 60.4942 11.8762 60.581 12.0354 60.6078C12.0429 60.6089 12.0498 60.6099 12.0563 60.611C12.2733 60.6442 12.3381 60.5044 12.3526 60.4609C12.3998 60.3211 12.3167 60.2289 12.1999 60.1506C12.3601 60.0927 12.5043 59.993 12.627 59.8564C12.6752 63.2742 13.0326 66.6465 13.6741 69.9453C13.5943 69.7813 13.5144 69.6173 13.4346 69.4533C13.3998 69.3922 13.3649 69.3311 13.3301 69.27C13.2513 69.1162 13.1731 68.9618 13.0943 68.808C13.0343 68.6193 12.955 68.4441 12.8671 68.2742C12.9153 68.3101 12.9635 68.3299 13.0219 68.3251L13.1532 68.3128L13.2079 68.1981C13.3708 67.8561 11.374 64.6382 10.276 63.0695C9.63345 62.1551 9.08255 61.4182 8.53969 60.7493C7.98557 60.0852 7.22515 59.2588 6.25303 58.7609C5.78841 58.5213 5.28947 58.3696 4.8152 58.323C4.22625 58.2501 3.6759 58.3632 3.26112 58.6435C2.78417 58.9779 2.5966 59.3971 2.47013 59.6811C2.34794 59.9813 2.28042 60.2171 2.23701 60.3848C1.97067 61.3388 1.9251 62.5908 2.1191 63.7544C2.1818 64.2105 2.46317 65.8356 3.45779 67.5903C4.267 69.0594 5.49417 70.3451 6.83767 71.1775C7.2128 71.618 7.58847 71.8431 7.96359 71.7622C8.60024 72.0377 9.24225 72.2215 9.85156 72.3239C10.8012 72.4836 11.6704 72.4622 12.3103 72.3469C12.7904 72.2724 13.1655 72.1556 13.3574 72.0704C13.5659 71.9782 13.5611 71.8421 13.5396 71.7692C13.4962 71.6218 13.3778 71.5966 13.2041 71.6095C13.3397 71.4771 13.471 71.3254 13.5964 71.1501C13.7759 71.043 13.7904 70.8629 13.8209 70.6892C18.8128 94.6692 38.9047 114.586 65.5784 119.076C94.0801 123.874 121.245 109.57 132.719 85.8585C132.792 85.8146 132.858 85.7696 132.907 85.7256C133.091 85.5696 133.206 85.4094 133.3 85.2647C133.327 85.2191 133.352 85.1747 133.375 85.1312C133.52 85.0707 133.655 85.0042 133.785 84.9367C133.997 84.8804 134.201 84.8027 134.359 84.621C134.629 84.5519 134.803 84.3729 134.965 84.1783C135.282 83.9446 135.591 83.7056 135.888 83.4681C135.93 83.4462 135.969 83.4146 136.004 83.376L136.185 83.2318C136.226 83.1991 136.269 83.1643 136.31 83.131C136.75 82.8571 137.162 82.5522 137.496 82.1631C138.098 81.6614 138.702 81.1383 139.284 80.5873C140.369 79.5572 141.236 78.5802 141.936 77.5983C142.002 77.505 142.062 77.4118 142.123 77.3185C142.626 76.8094 142.9 76.2134 143.048 75.5702ZM132.268 80.2277L132.267 80.2368C132.266 80.2342 132.265 80.2315 132.265 80.2288C132.267 80.2277 132.267 80.2283 132.268 80.2277ZM131.688 80.1382C131.689 80.1409 131.689 80.143 131.69 80.1452C131.689 80.1457 131.688 80.1452 131.687 80.1457C131.687 80.1457 131.688 80.1409 131.688 80.1382ZM130.047 79.2646C130.046 79.2716 130.046 79.2785 130.046 79.2855C130.039 79.2818 130.032 79.2769 130.025 79.2737C130.032 79.2705 130.04 79.2678 130.047 79.2646ZM134.627 78.8862C134.511 79.0867 134.399 79.2898 134.291 79.4956C134.473 79.0052 134.656 78.5491 134.843 78.1466C134.868 78.0914 134.896 78.0324 134.922 77.9756C134.826 78.28 134.728 78.5839 134.627 78.8862ZM133.898 79.3075C133.906 79.2255 133.917 79.144 133.925 79.0625C133.937 79.0835 133.951 79.1006 133.97 79.1119C133.945 79.1756 133.922 79.2432 133.898 79.3075ZM131.592 70.828C131.561 70.8023 131.53 70.775 131.497 70.7519C131.173 70.5145 130.787 70.4529 130.472 70.5847C130.311 70.649 130.16 70.7616 130.016 70.9149C129.874 71.0306 129.767 71.1925 129.681 71.3763C129.418 71.8426 129.195 72.3861 129.003 73.041C128.81 73.7158 128.698 74.4259 128.65 75.1586C128.63 75.2535 128.611 75.3478 128.591 75.4427C128.438 75.7578 128.494 76.0992 128.464 76.4299C128.269 77.5002 128.431 78.488 129.121 79.352C129.203 79.6425 129.293 79.9222 129.387 80.194C129.533 80.9357 129.726 81.6668 129.959 82.3876C130.038 82.7055 130.113 83.0249 130.19 83.3433C129.858 82.691 129.518 81.9519 129.206 81.1276C128.548 79.3857 128.227 77.6883 128.252 76.0826C128.262 75.1463 128.383 74.2491 128.612 73.413C128.726 72.9789 128.875 72.5538 129.068 72.1165C129.248 71.7167 129.419 71.3388 129.714 70.9685C129.839 70.8157 130.017 70.6238 130.279 70.4909C130.485 70.3821 130.748 70.3425 130.976 70.381C130.999 70.3848 131.021 70.3891 131.043 70.3944C131.391 70.4909 131.626 70.6796 131.819 70.8865C131.745 70.8618 131.669 70.8436 131.592 70.828ZM131.673 84.8C131.721 84.8616 131.77 84.9152 131.818 84.9528C131.827 84.9592 131.836 84.9667 131.846 84.9737C131.732 84.9972 131.601 85.0487 131.605 85.2132C131.606 85.2599 131.627 85.4046 131.843 85.4367C131.877 85.4405 131.919 85.4367 131.956 85.4383C131.929 85.4941 131.904 85.5498 131.877 85.605C131.724 85.5729 131.566 85.4968 131.468 85.4132C131.304 85.2813 131.2 85.1355 131.113 85.008C131.079 84.9501 131.042 84.8868 131.007 84.8263C131.229 84.7711 131.452 84.7909 131.673 84.8ZM137.606 74.1489C138.485 73.3546 139.37 72.8293 140.311 72.5442C140.879 72.3711 141.461 72.2934 142.036 72.3126C142.103 72.3164 142.178 72.3212 142.259 72.3346C142.357 72.3512 142.465 72.3812 142.577 72.4413C142.776 72.5463 142.909 72.7478 142.966 72.8995C143.043 73.1091 143.064 73.3015 143.063 73.4928C142.949 73.2908 142.773 73.1278 142.55 73.0067C142.514 72.9424 142.473 72.8877 142.424 72.8534C142.326 72.7763 142.151 72.7441 141.91 72.7575C141.848 72.7586 141.786 72.7682 141.724 72.772C140.202 72.6106 138.12 73.5314 137.427 74.7754C137.33 74.9496 137.278 75.1602 137.215 75.358C137.012 75.6018 136.814 75.8586 136.625 76.133C136.591 76.1834 136.56 76.2321 136.527 76.282C136.429 76.3865 136.337 76.4937 136.243 76.6009C136.377 76.1303 136.504 75.6571 136.626 75.1811C136.915 74.8311 137.239 74.4844 137.606 74.1489ZM140.118 58.3144C140.12 58.3096 140.122 58.3048 140.124 58.2999C140.135 58.3021 140.144 58.3053 140.154 58.308C140.142 58.3101 140.13 58.3117 140.118 58.3144ZM135.094 64.3258C135.099 64.3284 135.103 64.3322 135.108 64.3354C135.104 64.3386 135.099 64.3413 135.095 64.3445C135.096 64.3381 135.093 64.3322 135.094 64.3258ZM136.307 60.6716C136.307 60.6667 136.307 60.6619 136.307 60.6566C136.317 60.6598 136.322 60.6667 136.331 60.671C136.323 60.671 136.316 60.671 136.307 60.6716ZM134.762 60.9921C134.768 60.9931 134.774 60.9942 134.78 60.9953C134.773 61.0001 134.768 61.0039 134.761 61.0087C134.761 61.0028 134.762 60.9974 134.762 60.9921ZM134.907 61.0167L134.906 61.0226C134.903 61.0194 134.898 61.0178 134.894 61.0146C134.898 61.0151 134.903 61.0157 134.907 61.0167ZM135.287 55.1303C135.277 55.1137 135.267 55.0986 135.257 55.082C135.241 55.0381 135.225 54.9936 135.212 54.9491C135.249 54.9153 135.251 54.8682 135.213 54.8065C135.186 54.7267 135.153 54.65 135.124 54.5713C135.7 55.6008 136.158 56.6068 136.517 57.526C136.146 56.6979 135.735 55.8962 135.287 55.1303ZM134.022 52.8562C133.359 52.3004 132.843 52.4681 132.615 53.316C132.38 53.6714 132.322 54.0846 132.313 54.4866C132.298 55.2262 132.339 55.9674 132.358 56.7081C132.475 57.1723 132.165 57.7013 132.571 58.1215C132.58 58.1193 132.585 58.1156 132.593 58.1129C132.619 58.4597 132.537 58.8166 132.697 59.15C132.65 59.6302 132.728 60.0933 132.889 60.5451C132.798 60.954 133.019 61.3351 132.995 61.7376C133.191 62.1122 132.939 62.6927 133.525 62.8872C133.689 63.0737 133.853 63.2603 134.017 63.4473C134.059 63.6177 134.092 63.793 134.257 63.8975C134.33 64.1746 134.608 64.3643 134.593 64.6795C134.727 65.3741 135.003 65.9797 135.646 66.3544C135.679 66.3774 135.716 66.3919 135.755 66.3989C135.781 66.5012 135.744 66.6422 135.915 66.6534C135.889 66.6658 135.875 66.6861 135.873 66.7151C136.216 66.9638 136.533 67.0463 136.812 66.8876C136.93 66.9402 137.055 66.975 137.161 66.9611C137.162 66.9611 137.164 66.9605 137.165 66.9605C136.978 67.198 136.84 67.3759 136.74 67.5115C136.587 67.4622 136.459 67.3931 136.328 67.3105C136.005 67.0956 135.762 66.8448 135.425 66.4975L135.396 66.4675C135.031 66.0762 134.689 65.6335 134.377 65.1501C133.661 64.0572 133.074 62.6482 132.723 61.1802C132.375 59.7503 132.189 58.0561 132.17 56.1491C132.173 55.9755 132.172 55.8002 132.171 55.6234C132.167 54.932 132.164 54.217 132.391 53.4672C132.427 53.3552 132.469 53.2442 132.517 53.1402L132.546 53.0802C132.59 52.987 132.624 52.9135 132.726 52.7769C132.894 52.5426 133.173 52.4237 133.44 52.4681C133.473 52.474 133.507 52.4821 133.54 52.4933C133.673 52.5314 133.84 52.6472 133.933 52.7393C134.004 52.8079 134.071 52.8862 134.138 52.9746C134.098 52.9366 134.065 52.8926 134.022 52.8562ZM139.131 57.8165L139.17 57.7254C139.541 56.8587 139.924 55.9626 140.635 55.1078C141.038 54.6307 141.517 54.2604 142.02 54.0369C142.327 53.9024 142.631 53.8209 142.926 53.7952C143.091 53.7791 143.253 53.7807 143.411 53.7989C143.566 53.8156 143.737 53.8434 143.928 53.9383C144.114 54.0256 144.268 54.2138 144.337 54.3558C144.34 54.3622 144.342 54.3697 144.345 54.3767C144.111 54.2288 143.797 54.1452 143.386 54.1141C142.982 54.1286 142.553 54.2625 142.139 54.4742C142.129 54.4791 142.119 54.4823 142.109 54.4876C142.104 54.4903 142.101 54.4935 142.096 54.4962C141.054 55.0445 140.116 56.0998 139.93 57.108C139.937 57.1331 139.946 57.1557 139.957 57.1771C139.717 57.5592 139.477 57.9414 139.237 58.3241C139 58.9962 138.67 59.6323 138.42 60.2996C138.419 60.1822 138.42 60.0643 138.418 59.947C138.614 59.2207 138.849 58.5079 139.131 57.8165ZM132.432 39.9438C131.943 39.3923 131.323 38.9968 130.604 38.7191C129.597 38.2298 129.262 38.2823 128.795 39.0016C128.762 39.6549 129.175 40.066 129.598 40.4696C129.854 40.7145 130.112 40.9578 130.369 41.2017C130.546 41.4177 130.729 41.6278 130.924 41.8245C130.978 41.8792 131.044 41.9397 131.105 41.9987C131.22 42.1471 131.362 42.2672 131.522 42.3701C131.588 42.4248 131.656 42.4794 131.727 42.5352C131.734 42.5598 131.738 42.5856 131.749 42.6086C131.791 42.6938 131.835 42.7753 131.881 42.8519C131.826 42.8262 131.771 42.8058 131.715 42.778C131.1 42.4757 130.465 42.018 129.972 41.5206C129.432 40.9771 129.126 40.4792 129.037 40.3238C128.77 39.8918 128.632 39.4153 128.67 39.0434C128.679 38.9207 128.729 38.606 129.002 38.3391C129.143 38.1998 129.335 38.0953 129.517 38.0588C129.665 38.0293 129.822 38.0283 129.985 38.0556C130.032 38.0636 130.08 38.0738 130.127 38.0862C130.474 38.1794 130.791 38.3541 131.148 38.6468C131.369 38.8381 131.541 39.0075 131.715 39.1774C131.792 39.2529 131.868 39.328 131.948 39.4036C132.211 39.6614 132.426 39.8757 132.6 40.0531C132.542 40.0167 132.488 39.9802 132.432 39.9438ZM136.159 36.2285C136.358 36.0061 136.549 35.8625 136.764 35.774C136.974 35.6845 137.233 35.6706 137.463 35.7381C137.903 35.856 138.125 36.2408 138.218 36.4584C138.345 36.7575 138.378 37.0212 138.394 37.22C138.421 37.5079 138.399 37.9897 138.257 38.4833C138.243 38.538 138.224 38.5916 138.209 38.6457C138.236 38.4013 138.262 38.1564 138.288 37.9125C138.351 37.3396 137.955 36.8904 137.564 36.5394C137.478 36.4113 137.383 36.3336 137.238 36.2982C137.232 36.2966 137.226 36.2955 137.22 36.2944C137.134 36.28 137.033 36.2794 136.893 36.3464C136.879 36.3529 136.862 36.3657 136.847 36.3738C136.69 36.4316 136.542 36.5458 136.416 36.7141C136.39 36.75 136.367 36.7891 136.341 36.8261C136.307 36.8674 136.272 36.907 136.239 36.9515C135.996 37.2565 135.765 37.6075 135.559 37.9779C135.295 38.2341 135.087 38.5299 134.904 38.844C135.001 38.4265 135.136 38.0192 135.307 37.6386C135.596 37.0105 135.852 36.5876 136.159 36.2285ZM85.3214 1.78174C108.39 5.66531 126.467 21.2409 133.889 40.9536C133.817 41.0023 133.794 41.0666 133.899 41.2028C133.803 41.2296 133.707 41.2564 133.611 41.2826C133.521 41.2199 133.432 41.1577 133.343 41.095C133.283 41.0607 133.252 40.998 133.224 40.9337C133.256 40.9525 133.288 40.9723 133.321 40.9905C133.391 41.0307 133.604 41.1513 133.736 40.9766C133.869 40.8003 133.924 40.7279 132.249 39.09L132.018 38.866C131.84 38.6907 131.661 38.5155 131.428 38.3139C131.173 38.1038 130.771 37.8085 130.238 37.6649C129.957 37.592 129.686 37.5797 129.431 37.6311C129.165 37.6842 128.897 37.8294 128.696 38.0283C128.318 38.3986 128.248 38.8392 128.235 39.0048C128.189 39.4695 128.346 40.0333 128.668 40.5559C128.755 40.707 129.085 41.2462 129.663 41.8261C130.188 42.3556 130.866 42.8444 131.522 43.1671C132.081 43.4442 132.689 43.6317 133.151 43.7095C133.496 43.7673 133.761 43.7647 133.861 43.6923L133.913 43.6505C134.23 43.6575 134.548 43.6977 134.845 43.8456C134.862 43.8483 134.879 43.8531 134.896 43.8579C136.446 48.747 137.347 53.8595 137.521 59.0862C137.035 57.5158 136.221 55.4336 134.893 53.331L134.77 53.1397C134.696 53.0223 134.621 52.9055 134.526 52.7661C134.429 52.6332 134.337 52.526 134.238 52.4296C134.105 52.2988 133.876 52.1385 133.67 52.079C133.206 51.9247 132.673 52.1074 132.376 52.5217C132.252 52.69 132.202 52.794 132.154 52.8948L132.126 52.9553C132.069 53.0797 132.02 53.2072 131.978 53.3385C131.73 54.1548 131.734 54.9035 131.738 55.6271C131.739 55.8002 131.74 55.9728 131.737 56.1491C131.756 58.0941 131.945 59.8221 132.301 61.2831C132.669 62.8197 133.261 64.2395 134.014 65.388C134.339 65.8918 134.697 66.3549 135.082 66.7681L135.114 66.8014C135.456 67.154 135.727 67.4327 136.092 67.6766C136.212 67.7516 136.351 67.8315 136.518 67.8947C136.509 67.9628 136.547 67.9971 136.605 68.0475C136.647 68.0845 136.683 68.1075 136.722 68.1139C136.783 68.1241 136.849 68.092 136.95 68.0046C136.999 68.01 137.054 68.0057 137.107 68.0051C137.01 68.7732 136.902 69.5423 136.772 70.3119C136.449 72.2339 136.028 74.1167 135.52 75.9588C135.06 76.6689 134.722 77.356 134.452 77.9547C134.467 77.6508 134.473 77.2773 134.452 76.841C134.381 75.5499 134.101 74.2957 133.62 73.1139C133.297 72.3234 132.92 71.6272 132.459 70.9722C132.184 70.6115 131.842 70.1624 131.152 69.9721C130.797 69.8869 130.396 69.9357 130.079 70.104C129.745 70.2733 129.519 70.5199 129.375 70.6935C129.044 71.1094 128.854 71.5301 128.656 71.9712C128.468 72.3979 128.312 72.8449 128.192 73.2994C127.954 74.1692 127.828 75.1039 127.817 76.0756C127.792 77.736 128.122 79.4865 128.8 81.2809C129.43 82.945 130.167 84.2662 130.746 85.2411C130.853 85.3992 130.984 85.5831 131.191 85.7492C131.309 85.8494 131.488 85.9475 131.681 86.0054C120.227 109.064 93.6251 122.915 65.7242 118.218C39.5295 113.808 19.7716 94.3246 14.7416 70.8248C14.7984 70.8002 14.8563 70.7653 14.9163 70.7144C15.083 70.8221 15.2073 70.6919 15.4871 70.3762L15.4897 70.373C15.5085 70.3516 15.5262 70.3296 15.5444 70.3076C15.5626 70.4829 15.6494 70.6501 15.7914 70.8575C16.6382 69.8553 17.3273 68.8171 17.904 67.7002C18.2121 67.1728 18.6247 66.6968 18.7737 66.0923C19.9291 64.4163 20.838 62.8996 21.4939 61.721C23.4114 58.4313 23.9907 55.8399 23.212 54.0085C23.0287 53.6221 22.7249 53.2871 22.3589 53.0652C21.9623 52.8197 21.4355 52.7061 20.95 52.7619C20.1322 52.8567 19.3369 53.2469 18.5835 53.926C17.7614 54.7036 17.0476 55.6008 16.4624 56.5913C15.7818 57.7179 15.2089 59.1007 14.7598 60.7016C14.3681 62.1074 14.0701 63.7351 13.8697 65.5365C13.6007 63.226 13.471 60.887 13.493 58.5272C13.5385 58.4806 13.5852 58.4291 13.6366 58.3712C15.4249 56.3421 17.3257 54.0926 19.2866 51.684C20.2833 50.4572 20.9516 49.5488 21.4527 48.7395C22.1129 47.6933 22.4982 46.7977 22.7061 46.228C22.8358 45.8592 23.0223 45.2911 23.1386 44.6206L23.1525 44.5284C23.2008 44.2218 23.2672 43.8011 23.0287 43.2828C22.7131 42.6525 22.0164 42.4328 21.5078 42.496C20.8905 42.5577 20.4291 42.9237 20.055 43.278L19.9559 43.3766C19.6451 43.688 19.323 44.0091 18.9988 44.388C18.1912 45.3056 17.4645 46.3196 16.8391 47.4022C15.561 49.5911 14.7014 52.1932 14.4158 54.6881C14.1221 55.2417 14.0868 55.5365 14.3231 55.8656C14.3145 56.0628 14.3167 56.2129 14.3928 56.2912C14.0053 56.8373 13.7202 57.2489 13.5118 57.5614C13.5809 54.9539 13.829 52.325 14.2727 49.6865C19.6756 17.5867 51.5481 -3.90374 85.3214 1.78174ZM15.1773 60.82C15.6157 59.2572 16.173 57.9103 16.8343 56.8153C17.4002 55.8576 18.0888 54.9925 18.8771 54.2465C19.5588 53.6333 20.2726 53.2796 20.9988 53.1954C21.1676 53.1762 21.3423 53.182 21.5116 53.2105C21.7351 53.248 21.95 53.3257 22.1311 53.4377C22.4232 53.614 22.6734 53.8906 22.8149 54.188C23.4907 55.7772 23.025 58.0486 21.4307 60.9492C21.443 60.8629 21.4591 60.7788 21.4607 60.6876C21.4982 60.6491 21.5105 60.6035 21.4977 60.5515C21.6622 60.3998 21.7088 60.1989 21.7329 59.9882C21.778 59.9582 21.7935 59.9169 21.7796 59.865C22.0293 59.4239 22.2077 58.9565 22.3069 58.4586C22.6531 57.4869 22.7083 56.4562 22.9076 55.4551C22.9542 55.2208 22.8626 54.977 22.7468 54.7513C22.1675 53.6226 20.1167 53.3439 19.1017 54.2636C18.0647 55.2032 17.3606 56.3587 16.897 57.6697C16.6457 57.9837 16.4512 58.3246 16.4045 58.7335C16.165 59.0723 16.0079 59.4431 15.9308 59.8462C15.8863 59.9625 15.8472 60.0804 15.8048 60.1972C15.4989 60.7825 15.3627 61.4219 15.2137 62.057C15.1462 62.3004 15.0835 62.5389 15.0246 62.7747C14.9871 62.8969 14.9463 63.0185 14.8997 63.1381C14.7282 63.3128 14.628 63.5138 14.5589 63.7265C14.7277 62.6798 14.9324 61.7012 15.1773 60.82ZM20.3825 62.7682C20.3889 62.7624 20.3943 62.7549 20.4007 62.749C20.3407 62.8497 20.2753 62.9569 20.2126 63.0609C20.248 62.9521 20.2946 62.8497 20.3825 62.7682ZM17.4018 53.0384C18.0749 52.2189 18.7919 51.4327 19.3209 50.5033C19.8337 50.0059 20.2228 49.4239 20.5074 48.77C20.6483 48.6644 20.7212 48.5261 20.7115 48.3477C21.6102 47.0555 22.0052 45.5918 22.1884 44.0525C22.2683 43.3815 21.9736 43.0963 21.3032 43.2067C20.6306 43.3171 20.2635 43.8113 19.9173 44.3135C19.4457 44.9979 19.0669 45.8576 18.3686 46.2285C18.1687 46.3346 18.0058 46.4568 17.8643 46.5892C18.3139 45.916 18.801 45.2739 19.3273 44.6758C19.6424 44.3076 19.9581 43.9919 20.2635 43.6864L20.3584 43.5916C20.6906 43.2769 21.0647 42.9795 21.555 42.9307C21.9221 42.8862 22.4178 43.039 22.6359 43.4731C22.816 43.866 22.7662 44.1833 22.7222 44.4625L22.7083 44.5547C22.5984 45.1871 22.4194 45.7316 22.2956 46.0838C22.0957 46.631 21.7233 47.4955 21.0829 48.5106C20.5909 49.3054 19.9323 50.2 18.9479 51.4118C18.2839 52.227 17.6274 53.0234 16.9795 53.8C17.1221 53.5465 17.2619 53.2925 17.4018 53.0384ZM7.85 53.9308C7.8441 53.9222 7.83767 53.9131 7.83178 53.9045C7.83875 53.9035 7.84786 53.8997 7.85536 53.8981C7.85322 53.9093 7.8516 53.9201 7.85 53.9308ZM7.56811 53.5218C7.54561 53.4897 7.52364 53.4575 7.50113 53.4248C7.53543 53.4452 7.55418 53.4811 7.56811 53.5218ZM6.89877 48.4731C6.95557 48.3069 7.01935 48.1494 7.08848 48.0009L7.14101 47.8969C7.17102 47.8358 7.20154 47.7737 7.26049 47.6756C7.37142 47.4923 7.50486 47.3663 7.66081 47.2999C7.78407 47.2447 7.9277 47.2291 8.07186 47.2538C8.12598 47.2629 8.17956 47.2774 8.23315 47.2977C8.32693 47.331 8.44914 47.4033 8.52363 47.458C8.59598 47.5105 8.66028 47.5657 8.71494 47.6166L8.80227 47.7034C8.99466 47.8937 9.1935 48.091 9.38213 48.3139C10.2042 49.2454 10.9829 50.5457 11.5745 51.9761C11.5943 52.0238 11.6131 52.0748 11.6323 52.1225C11.6184 52.1262 11.605 52.13 11.5927 52.1321C11.5161 52.0249 11.4389 51.9177 11.3612 51.8094C11.3081 51.5039 11.1399 51.2805 10.881 51.1191C10.6233 50.7091 10.3623 50.3023 10.1152 49.8848C9.66186 49.1195 9.16562 48.3659 8.30658 47.9827C8.1442 47.8524 8.05578 47.8353 8.01184 47.839C7.98076 47.838 7.95073 47.8423 7.92179 47.8508L7.88696 47.8557L7.88323 47.8621C7.43415 47.8267 7.10297 48.1226 7.07778 48.6569C7.06921 48.8402 7.01239 48.9747 6.90789 49.1195C6.80446 49.2626 6.72515 49.4089 6.65816 49.5563C6.72729 49.0149 6.84625 48.6248 6.89877 48.4731ZM7.33016 53.7368C7.00219 52.9366 6.79482 52.1326 6.69568 51.5125C6.96202 52.1509 7.23211 52.7876 7.50113 53.4248C7.47648 53.7411 7.60079 54.009 7.77388 54.2609V54.2615C7.8532 54.3746 7.93197 54.4882 8.01128 54.6013C7.96091 54.7519 7.95504 54.8944 8.08151 55.0145C8.19994 55.4149 8.31942 55.8142 8.45232 56.2092C8.35211 56.0066 8.25674 55.8104 8.17368 55.6346C7.86715 54.9839 7.57185 54.3494 7.33016 53.7368ZM9.5236 58.0818C9.57879 58.0957 9.63614 58.1054 9.69348 58.1156C9.86497 58.4216 10.0424 58.7051 10.2278 58.9592C9.99038 58.7067 9.75189 58.4103 9.5236 58.0818ZM5.63406 65.3221C5.63459 65.3216 5.63514 65.321 5.63514 65.321L5.63622 65.3221C5.63568 65.3221 5.63513 65.3221 5.63406 65.3221ZM7.83446 70.0187C7.82053 69.9925 7.81247 69.9635 7.80175 69.9357C7.81461 69.9635 7.82053 69.9914 7.83446 70.0187ZM6.75783 66.6926C6.7589 66.6963 6.75944 66.7011 6.76051 66.7043C6.75408 66.7033 6.7482 66.7011 6.74177 66.7001C6.74766 66.6974 6.753 66.6952 6.75783 66.6926ZM11.5429 66.4884C11.537 66.4712 11.5305 66.4535 11.5246 66.4364C11.5413 66.4589 11.5573 66.4814 11.5739 66.5039C11.5627 66.4991 11.5563 66.4921 11.5429 66.4884ZM12.0086 67.1036C11.8976 66.9841 11.7856 66.8657 11.6699 66.7499C11.6752 66.7113 11.6758 66.6749 11.6725 66.6406C11.7846 66.7944 11.8966 66.9471 12.0086 67.1036ZM3.83826 67.3781C2.88061 65.6887 2.61051 64.1317 2.54621 63.6622C2.33346 62.3866 2.46368 61.1931 2.65768 60.4979C2.70162 60.3296 2.76165 60.1201 2.87097 59.8515C2.9878 59.5905 3.13303 59.2647 3.50869 59.0015C3.94598 58.7062 4.4824 58.7196 4.76803 58.755C4.83824 58.7614 4.90845 58.7716 4.97972 58.7834C5.33931 58.8439 5.70693 58.9683 6.05472 59.1478C6.95771 59.6104 7.67904 60.3956 8.20475 61.0258C8.73904 61.6845 9.2846 62.4134 9.92071 63.3198C10.4164 64.0272 10.8655 64.7154 11.254 65.3393C11.1747 65.2342 11.0964 65.1351 11.0171 65.0316C10.8714 64.7701 10.6811 64.5401 10.4727 64.3236C9.88211 63.5679 9.29746 62.8535 8.72351 62.1857C8.22352 61.4519 7.59704 60.8173 6.95182 60.2015C6.35054 59.627 5.63084 59.2931 4.81896 59.1435C4.31629 59.0508 3.96259 59.1811 3.64963 59.6484C3.63302 59.6736 3.62122 59.6993 3.60515 59.7245C3.56978 59.7771 3.53655 59.8339 3.50601 59.8944C2.6893 61.2756 2.68824 62.7543 2.9669 64.2856C3.23057 65.6249 3.89346 66.8158 4.38381 68.0711C4.47276 68.2988 4.7134 68.4167 4.94544 68.5041C4.99046 68.6242 5.09064 68.6649 5.20479 68.6858C5.36502 68.9146 5.44329 69.203 5.69624 69.3649C5.85165 69.6216 5.99686 69.8863 6.14637 70.1479C5.23213 69.3911 4.41328 68.4216 3.83826 67.3781ZM8.43734 71.491C8.44913 71.4798 8.46144 71.4728 8.47323 71.461C8.61363 71.4873 8.75404 71.5135 8.89445 71.5393C9.17204 71.7858 9.52573 71.7858 9.86013 71.8464C9.95981 71.8732 10.0584 71.9064 10.1592 71.93C10.1619 71.931 10.1645 71.9316 10.1672 71.9326C9.61684 71.8565 9.0279 71.7161 8.43734 71.491Z" fill="#FB98B7"/>
<path d="M104 37.4047C103.249 33.044 95.7542 37.1328 93.7875 38.8965C87.6998 44.3859 84.3037 51.8704 81.7049 59.5616C80.5814 59.8537 79.4619 60.1765 78.3496 60.4869C81.0892 51.4844 84.8438 42.6932 90.5302 35.1115C95.2668 34.9087 100.701 33.3139 103.282 29.0758C104.401 27.1836 103.963 24.3225 101.806 23.3725C96.5475 21.4387 91.6254 27.4953 88.4839 30.9353C81.0484 30.4867 73.7584 27.9119 66.2479 28.65C62.915 28.9897 59.6038 29.9475 56.7859 31.7797C51.7559 35.0405 47.9488 42.1338 51.6132 47.6662C56.7471 54.4048 66.9129 51.6911 72.308 46.6601C74.9963 44.9212 72.5961 41.1864 69.9874 43.0968C66.7682 46.0987 61.8376 48.697 57.4016 47.007C50.6647 44.0612 56.4353 35.6931 61.3337 34.0892C69.148 30.9549 77.5872 33.9588 85.5502 34.8735C79.9552 42.9716 76.3644 52.1912 73.6373 61.5816C71.6634 61.875 69.6341 61.9193 67.7266 61.2797C66.2617 60.9674 65.3836 59.22 63.7892 59.5088C62.842 59.5779 62.0579 60.5671 62.0579 61.5523C62.2336 63.8174 65.7855 65.1481 67.7312 65.5974C68.8718 65.8725 69.9985 65.9886 71.1161 65.9886C71.543 65.9886 71.9686 65.9677 72.3935 65.9358C70.9872 70.9739 69.765 76.2201 66.7163 80.5313C65.4856 82.0596 63.7103 83.4086 61.6567 83.3969C59.4341 83.5025 58.6402 80.9486 59.3032 79.1816C59.7821 77.5404 60.8812 76.078 62.3388 75.1638C64.6048 73.6062 62.3651 70.2372 60.0208 71.686C54.2581 75.0921 52.2256 85.2193 60.0248 87.3918C60.5635 87.4596 61.0825 87.4922 61.5843 87.4922C71.6384 87.4916 74.4569 74.4023 76.9525 65.1475C77.9306 64.9049 78.9067 64.6337 79.8828 64.3599C79.9874 64.3305 80.0927 64.3012 80.1979 64.2718C79.7559 65.72 79.3277 67.1635 78.9028 68.5895C77.455 73.7463 75.8053 78.9188 73.0519 83.5553C61.6929 102.948 41.7407 87.8821 52.2131 73.8617C52.9169 73.0024 53.7279 72.2141 54.681 71.6279C55.2961 71.5021 55.8716 71.1089 56.1308 70.5391C57.1556 67.9342 54.1811 66.6035 52.2374 68.2355C49.0071 70.3539 46.8299 73.805 45.7084 77.4329C42.7576 86.1426 49.3985 96.2971 58.7046 96.9237C59.1907 96.9752 59.6715 97 60.1491 97C66.6676 96.9993 72.279 92.3478 75.7481 87.1251C80.4545 79.8571 82.4396 71.3391 85.0082 63.0982C86.2836 62.8661 87.5663 62.7181 88.8641 62.7337C89.9711 62.8198 91.0715 63.0702 92.074 63.5533C93.1303 64.3155 94.6695 64.2125 95.3628 63.0291C96.287 61.4271 94.9063 60.063 93.4171 59.5779C91.134 58.5921 88.8127 58.4147 86.4855 58.6442C88.2589 53.6811 90.4782 48.9265 93.9085 44.734C99.6192 37.5136 103.838 41.3214 104 37.4047ZM99.5508 27.1497C98.5471 28.7393 96.6731 29.525 94.9655 30.1588C96.337 28.9819 97.7222 27.55 99.5508 27.1497Z" fill="#FB98B7"/>
<path d="M11.22 149.948L18.656 149.728C19.3307 149.728 19.8733 149.889 20.284 150.212C20.6947 150.535 20.9 150.945 20.9 151.444C20.9 151.943 20.6947 152.339 20.284 152.632C19.8733 152.925 19.3307 153.072 18.656 153.072L11.22 152.852C10.3987 152.852 9.372 152.881 8.14 152.94L8.36 166.888C8.36 168.589 7.75867 169.44 6.556 169.44C5.35333 169.44 4.752 168.589 4.752 166.888C4.752 165.744 4.78133 163.735 4.84 160.86C4.928 157.985 4.972 155.375 4.972 153.028C4.708 153.057 4.41467 153.072 4.092 153.072C2.684 153.072 1.98 152.529 1.98 151.444C1.98 150.945 2.17067 150.535 2.552 150.212C2.93333 149.889 3.35867 149.728 3.828 149.728C4.32667 149.728 4.708 149.743 4.972 149.772C4.91333 143.876 4.81067 140.312 4.664 139.08C4.312 138.581 4.136 138.039 4.136 137.452C4.136 136.337 4.95733 135.78 6.6 135.78L14.96 136L21.384 135.78C22.968 135.78 23.76 136.337 23.76 137.452C23.76 138.567 22.968 139.124 21.384 139.124L14.96 138.904C11.616 138.904 9.416 138.963 8.36 139.08C8.21333 142.923 8.14 146.516 8.14 149.86C9.43067 149.919 10.4573 149.948 11.22 149.948ZM30.0699 137.1C30.6859 137.1 31.1405 137.305 31.4339 137.716C31.7272 138.097 31.8739 138.596 31.8739 139.212C31.8739 139.799 31.6685 140.4 31.2579 141.016C30.8472 141.603 30.3339 141.896 29.7179 141.896C29.1019 141.896 28.6325 141.691 28.3099 141.28C28.0165 140.869 27.8699 140.327 27.8699 139.652C27.8699 138.977 28.0752 138.391 28.4859 137.892C28.9259 137.364 29.4539 137.1 30.0699 137.1ZM31.3019 158L31.5219 167.24C31.5219 168.707 30.9645 169.44 29.8499 169.44C28.7352 169.44 28.1779 168.707 28.1779 167.24L28.3979 158L28.1779 148.76C28.1779 147.293 28.7352 146.56 29.8499 146.56C30.9645 146.56 31.5219 147.293 31.5219 148.76L31.3019 158ZM56.5857 155.14L56.3657 162.048C56.3657 162.869 56.3657 163.5 56.3657 163.94C56.3951 164.351 56.4831 164.791 56.6297 165.26C56.8057 165.7 57.0111 165.979 57.2457 166.096C57.4804 166.184 57.7151 166.243 57.9497 166.272C58.2137 166.301 58.3897 166.345 58.4777 166.404C58.5951 166.463 58.6537 166.58 58.6537 166.756C58.6537 167.519 58.4044 168.164 57.9057 168.692C57.4364 169.191 56.8791 169.44 56.2337 169.44C55.1191 169.44 54.3417 169 53.9017 168.12C53.4911 167.24 53.2857 165.949 53.2857 164.248L53.4617 156.152C53.4617 154.157 53.0364 152.544 52.1857 151.312C51.3351 150.08 50.1471 149.464 48.6217 149.464C47.1257 149.464 45.6737 150.3 44.2657 151.972C42.8577 153.644 41.8751 155.536 41.3177 157.648L41.4497 167.196C41.4497 168.692 40.8924 169.44 39.7777 169.44C38.4284 169.44 37.7537 168.413 37.7537 166.36C37.7537 164.277 38.0471 161.373 38.6337 157.648C38.6337 156.416 38.5017 154.715 38.2377 152.544C38.0031 150.373 37.8857 149.039 37.8857 148.54C37.8857 148.012 38.0324 147.557 38.3257 147.176C38.6484 146.765 39.0737 146.56 39.6017 146.56C40.1297 146.56 40.5404 146.765 40.8337 147.176C41.1564 147.557 41.3177 147.997 41.3177 148.496C41.3177 148.995 41.3031 149.611 41.2737 150.344C41.2737 151.048 41.2737 151.649 41.2737 152.148C43.4151 148.423 46.0551 146.56 49.1937 146.56C51.5404 146.56 53.3591 147.396 54.6497 149.068C55.9404 150.74 56.5857 152.764 56.5857 155.14ZM72.1222 157.164C74.1169 157.164 75.7009 156.827 76.8742 156.152C78.0769 155.477 78.6782 154.568 78.6782 153.424C78.6782 152.28 78.2822 151.297 77.4902 150.476C76.7275 149.625 75.6275 149.2 74.1902 149.2C72.2542 149.2 70.6262 149.933 69.3062 151.4C67.9862 152.837 67.1355 154.524 66.7542 156.46C68.3675 156.929 70.1569 157.164 72.1222 157.164ZM73.7942 146.34C76.1702 146.34 78.0915 147 79.5582 148.32C81.0542 149.64 81.8022 151.356 81.8022 153.468C81.8022 155.58 80.8782 157.193 79.0302 158.308C77.2115 159.393 74.9675 159.936 72.2982 159.936C70.7729 159.936 68.9102 159.716 66.7102 159.276C66.8862 161.329 67.6489 163.104 68.9982 164.6C70.3769 166.067 71.9022 166.8 73.5742 166.8C74.5715 166.8 75.4955 166.668 76.3462 166.404C77.1969 166.111 77.8422 165.803 78.2822 165.48C79.4555 164.571 80.2182 164.116 80.5702 164.116C80.9515 164.116 81.2449 164.233 81.4502 164.468C81.6849 164.673 81.8022 164.937 81.8022 165.26C81.8022 166.081 80.9515 167.02 79.2502 168.076C77.5782 169.132 75.7595 169.66 73.7942 169.66C70.7435 169.66 68.3235 168.589 66.5342 166.448C64.7449 164.307 63.7769 161.725 63.6302 158.704C62.0755 158.235 61.2982 157.472 61.2982 156.416C61.2982 155.976 61.4155 155.639 61.6502 155.404C61.9142 155.14 62.2222 155.008 62.5742 155.008C62.9262 155.008 63.3662 155.14 63.8942 155.404C64.5395 152.764 65.7569 150.593 67.5462 148.892C69.3649 147.191 71.4475 146.34 73.7942 146.34ZM102.265 162.664C102.265 164.659 101.444 166.287 99.8009 167.548C98.1876 168.809 96.2369 169.44 93.9489 169.44C91.6903 169.44 89.7249 168.927 88.0529 167.9C86.3809 166.844 85.5449 165.803 85.5449 164.776C85.5449 164.336 85.6769 163.984 85.9409 163.72C86.2049 163.427 86.4983 163.28 86.8209 163.28C87.1729 163.28 87.4516 163.353 87.6569 163.5C87.8623 163.617 88.1409 163.867 88.4929 164.248C88.8449 164.629 89.1529 164.952 89.4169 165.216C89.7103 165.48 90.2823 165.773 91.1329 166.096C92.0129 166.419 92.8196 166.58 93.5529 166.58C95.1663 166.58 96.4863 166.257 97.5129 165.612C98.5689 164.937 99.0969 163.969 99.0969 162.708C99.0969 161.183 97.6303 159.907 94.6969 158.88C93.4943 158.469 92.2769 158.029 91.0449 157.56C89.8423 157.061 88.8156 156.387 87.9649 155.536C87.1143 154.685 86.6889 153.673 86.6889 152.5C86.6889 150.916 87.4076 149.537 88.8449 148.364C90.2823 147.161 92.0423 146.56 94.1249 146.56C96.2076 146.56 97.8503 146.927 99.0529 147.66C100.285 148.364 100.901 149.112 100.901 149.904C100.901 150.872 100.388 151.356 99.3609 151.356C98.9209 151.356 98.4809 151.195 98.0409 150.872C96.6623 149.904 95.3423 149.42 94.0809 149.42C92.8196 149.42 91.7929 149.713 91.0009 150.3C90.2089 150.857 89.8129 151.517 89.8129 152.28C89.8129 153.013 90.2383 153.644 91.0889 154.172C91.9396 154.7 92.9663 155.184 94.1689 155.624C95.4009 156.064 96.6329 156.563 97.8649 157.12C99.0969 157.648 100.138 158.396 100.989 159.364C101.84 160.303 102.265 161.403 102.265 162.664ZM122.288 162.664C122.288 164.659 121.467 166.287 119.824 167.548C118.211 168.809 116.26 169.44 113.972 169.44C111.714 169.44 109.748 168.927 108.076 167.9C106.404 166.844 105.568 165.803 105.568 164.776C105.568 164.336 105.7 163.984 105.964 163.72C106.228 163.427 106.522 163.28 106.844 163.28C107.196 163.28 107.475 163.353 107.68 163.5C107.886 163.617 108.164 163.867 108.516 164.248C108.868 164.629 109.176 164.952 109.44 165.216C109.734 165.48 110.306 165.773 111.156 166.096C112.036 166.419 112.843 166.58 113.576 166.58C115.19 166.58 116.51 166.257 117.536 165.612C118.592 164.937 119.12 163.969 119.12 162.708C119.12 161.183 117.654 159.907 114.72 158.88C113.518 158.469 112.3 158.029 111.068 157.56C109.866 157.061 108.839 156.387 107.988 155.536C107.138 154.685 106.712 153.673 106.712 152.5C106.712 150.916 107.431 149.537 108.868 148.364C110.306 147.161 112.066 146.56 114.148 146.56C116.231 146.56 117.874 146.927 119.076 147.66C120.308 148.364 120.924 149.112 120.924 149.904C120.924 150.872 120.411 151.356 119.384 151.356C118.944 151.356 118.504 151.195 118.064 150.872C116.686 149.904 115.366 149.42 114.104 149.42C112.843 149.42 111.816 149.713 111.024 150.3C110.232 150.857 109.836 151.517 109.836 152.28C109.836 153.013 110.262 153.644 111.112 154.172C111.963 154.7 112.99 155.184 114.192 155.624C115.424 156.064 116.656 156.563 117.888 157.12C119.12 157.648 120.162 158.396 121.012 159.364C121.863 160.303 122.288 161.403 122.288 162.664ZM135.888 157.164C137.882 157.164 139.466 156.827 140.64 156.152C141.842 155.477 142.444 154.568 142.444 153.424C142.444 152.28 142.048 151.297 141.256 150.476C140.493 149.625 139.393 149.2 137.956 149.2C136.02 149.2 134.392 149.933 133.072 151.4C131.752 152.837 130.901 154.524 130.52 156.46C132.133 156.929 133.922 157.164 135.888 157.164ZM137.56 146.34C139.936 146.34 141.857 147 143.324 148.32C144.82 149.64 145.568 151.356 145.568 153.468C145.568 155.58 144.644 157.193 142.796 158.308C140.977 159.393 138.733 159.936 136.064 159.936C134.538 159.936 132.676 159.716 130.476 159.276C130.652 161.329 131.414 163.104 132.764 164.6C134.142 166.067 135.668 166.8 137.34 166.8C138.337 166.8 139.261 166.668 140.112 166.404C140.962 166.111 141.608 165.803 142.048 165.48C143.221 164.571 143.984 164.116 144.336 164.116C144.717 164.116 145.01 164.233 145.216 164.468C145.45 164.673 145.568 164.937 145.568 165.26C145.568 166.081 144.717 167.02 143.016 168.076C141.344 169.132 139.525 169.66 137.56 169.66C134.509 169.66 132.089 168.589 130.3 166.448C128.51 164.307 127.542 161.725 127.396 158.704C125.841 158.235 125.064 157.472 125.064 156.416C125.064 155.976 125.181 155.639 125.416 155.404C125.68 155.14 125.988 155.008 126.34 155.008C126.692 155.008 127.132 155.14 127.66 155.404C128.305 152.764 129.522 150.593 131.312 148.892C133.13 147.191 135.213 146.34 137.56 146.34Z" fill="#FB98B7"/>
</svg>
