<svg width="186" height="134" viewBox="0 0 186 134" fill="none" xmlns="http://www.w3.org/2000/svg">
<path d="M163.124 25.2843C170.694 46.9056 164.152 72.1227 148.981 89.2904C133.81 106.458 111.056 115.898 88.1887 117.453C71.8725 118.564 50.2101 115.665 36.6065 106.588C23.0028 97.51 13.5468 84.1713 16.8271 66.9878C17.9847 60.9193 21.9021 52.7943 26.5764 48.7697C34.0359 42.3164 45.1856 43.4992 54.935 45.0636C64.6843 46.6281 75.8214 47.8392 83.3219 41.4238C89.075 36.4908 90.8633 28.492 94.4243 21.8021C100.48 10.4253 112.567 2.49588 125.413 1.4708C127.198 1.32964 128.99 1.31804 130.775 1.4361C144.638 2.3571 156.768 11.1192 162.465 23.7924L163.124 25.2843Z" fill="#F5F5F5"/>
<path d="M32.6609 55.7184L32.6609 129.84C32.6609 131.852 34.2919 133.483 36.3039 133.483H145.846C147.858 133.483 149.489 131.852 149.489 129.84V55.7184C149.489 53.7064 147.858 52.0754 145.846 52.0754H36.3039C34.2919 52.0754 32.6609 53.7064 32.6609 55.7184Z" fill="#263238"/>
<path d="M40.6536 54.6426L40.6536 130.918H138.219V54.6426H40.6536Z" fill="white"/>
<path d="M146.668 93.5048C147.062 91.8261 146.021 90.1452 144.343 89.7505C142.664 89.3558 140.983 90.3968 140.588 92.0756C140.194 93.7543 141.235 95.4352 142.913 95.8299C144.592 96.2245 146.273 95.1836 146.668 93.5048Z" fill="#455A64"/>
<path d="M36.0232 80.904V104.654C36.0232 104.867 36.1955 105.039 36.408 105.039H36.9284C37.1409 105.039 37.3132 104.867 37.3132 104.654V80.904C37.3132 80.6915 37.1409 80.5192 36.9284 80.5192H36.408C36.1955 80.5192 36.0232 80.6915 36.0232 80.904Z" fill="#455A64"/>
<path d="M68.3298 99.396C70.723 95.7597 69.7152 90.8718 66.0789 88.4787C62.4426 86.0855 57.5547 87.0933 55.1616 90.7296C52.7684 94.3659 53.7762 99.2538 57.4125 101.647C61.0488 104.04 65.9367 103.032 68.3298 99.396Z" fill="#1E1E1E"/>
<path d="M68.3298 99.396C70.723 95.7597 69.7152 90.8718 66.0789 88.4787C62.4426 86.0855 57.5547 87.0933 55.1616 90.7296C52.7684 94.3659 53.7762 99.2538 57.4125 101.647C61.0488 104.04 65.9367 103.032 68.3298 99.396Z" fill="#E24444"/>
<path d="M59.0133 93.0851C59.3098 93.0598 59.581 93.4005 59.6189 93.8231C59.6567 94.2458 59.4391 94.6211 59.1394 94.6463C58.8398 94.6716 58.5717 94.3309 58.537 93.9114C58.5023 93.4919 58.7262 93.1103 59.0133 93.0851Z" fill="#263238"/>
<path d="M64.0346 92.981C63.7381 92.981 63.4795 93.2964 63.4606 93.7442C63.4416 94.1921 63.6719 94.5359 63.9715 94.5485C64.2712 94.5612 64.5298 94.2331 64.5456 93.7884C64.5613 93.3437 64.3342 92.9936 64.0346 92.981Z" fill="#263238"/>
<path d="M64.8957 96.6361C64.8957 96.7276 63.4259 96.8033 61.6155 96.8033C59.805 96.8033 58.332 96.7276 58.332 96.6361C58.332 96.5447 59.8018 96.4658 61.6155 96.4658C63.4291 96.4658 64.8957 96.5384 64.8957 96.6361Z" fill="#263238"/>
<path d="M59.6439 92.1799C59.625 92.2745 59.2496 92.2713 58.8112 92.3407C58.3728 92.4101 58.0164 92.5237 57.9691 92.4417C57.9218 92.3596 58.253 92.0884 58.7608 92.0095C59.2686 91.9307 59.6439 92.0915 59.6439 92.1799Z" fill="#263238"/>
<path d="M65.457 92.5614C65.4003 92.6371 65.0596 92.4605 64.6212 92.328C64.1828 92.1955 63.8043 92.1482 63.7948 92.0504C63.7854 91.9527 64.2143 91.8486 64.719 92.0063C65.2236 92.164 65.517 92.4952 65.457 92.5614Z" fill="#263238"/>
<path d="M126.879 95.7069C127.588 91.2513 124.552 87.0641 120.096 86.3545C115.641 85.6448 111.453 88.6814 110.744 93.1369C110.034 97.5924 113.071 101.78 117.526 102.489C121.982 103.199 126.169 100.162 126.879 95.7069Z" fill="#1E1E1E"/>
<path d="M126.879 95.7069C127.588 91.2513 124.552 87.0641 120.096 86.3545C115.641 85.6448 111.453 88.6814 110.744 93.1369C110.034 97.5924 113.071 101.78 117.526 102.489C121.982 103.199 126.169 100.162 126.879 95.7069Z" fill="#009C89"/>
<path d="M115.986 92.3596C116.301 92.3344 116.579 92.675 116.617 93.1229C116.654 93.5708 116.434 93.9524 116.125 93.9776C115.815 94.0029 115.532 93.6622 115.494 93.2144C115.456 92.7665 115.677 92.3848 115.986 92.3596Z" fill="#263238"/>
<path d="M121.181 92.2523C120.866 92.2523 120.604 92.593 120.585 93.0408C120.566 93.4887 120.806 93.8609 121.115 93.8735C121.424 93.8861 121.692 93.5329 121.711 93.085C121.73 92.6371 121.493 92.2649 121.181 92.2523Z" fill="#263238"/>
<path d="M122.073 96.0371C122.039 96.0812 121.698 95.8384 121.127 95.5387C120.376 95.1467 119.542 94.9411 118.695 94.9394C117.847 94.9769 117.017 95.1918 116.257 95.5703C115.664 95.8604 115.311 96.0812 115.283 96.0371C115.254 95.9929 115.563 95.7217 116.147 95.3621C116.916 94.8971 117.791 94.6355 118.689 94.6019C119.592 94.5995 120.478 94.852 121.244 95.3305C121.808 95.6901 122.095 96.0055 122.073 96.0371Z" fill="#263238"/>
<path d="M116.61 91.4196C116.639 91.4543 116.585 91.5584 116.449 91.6751C116.272 91.8354 116.053 91.9445 115.819 91.9905C115.579 92.0361 115.332 92.0087 115.109 91.9117C114.942 91.836 114.866 91.7476 114.885 91.7066C114.904 91.6656 115.311 91.7476 115.759 91.6593C116.206 91.571 116.55 91.3439 116.61 91.4196Z" fill="#263238"/>
<path d="M122.657 91.8169C122.657 91.8579 122.581 91.9367 122.398 91.9935C122.158 92.0616 121.902 92.0528 121.666 91.9683C121.435 91.8869 121.228 91.7492 121.064 91.5677C120.944 91.4289 120.9 91.3185 120.931 91.287C120.963 91.2555 121.332 91.4952 121.774 91.6497C122.215 91.8043 122.625 91.7223 122.657 91.8169Z" fill="#263238"/>
<path d="M103.149 117.094L105.041 116.157L106.89 117.185L106.58 115.094L108.129 113.656L106.044 113.303L105.155 111.385L104.177 113.259L102.08 113.511L103.556 115.022L103.149 117.094Z" fill="#E0E0E0"/>
<path d="M95.4274 117.094L97.3199 116.157L99.1682 117.185L98.8591 115.094L100.408 113.656L98.3229 113.303L97.4334 111.385L96.4556 113.259L94.3582 113.511L95.8343 115.022L95.4274 117.094Z" fill="#008C7B"/>
<path d="M87.706 117.094L89.5984 116.157L91.4436 117.185L91.1376 115.094L92.6863 113.656L90.6014 113.303L89.712 111.385L88.7342 113.259L86.6367 113.511L88.1128 115.022L87.706 117.094Z" fill="#008C7B"/>
<path d="M79.985 117.094L81.8775 116.157L83.7226 117.185L83.4167 115.094L84.9653 113.656L82.8805 113.303L81.991 111.385L81.0132 113.259L78.9158 113.511L80.3919 115.022L79.985 117.094Z" fill="#008C7B"/>
<path d="M72.2636 117.094L74.156 116.157L76.0012 117.185L75.6952 115.094L77.2439 113.656L75.159 113.303L74.2696 111.385L73.2918 113.259L71.1943 113.511L72.6705 115.022L72.2636 117.094Z" fill="#008C7B"/>
<path d="M108.217 70.6183C108.217 70.6656 99.7452 70.7034 89.2925 70.7034C78.8398 70.7034 70.3679 70.6656 70.3679 70.6183C70.3679 70.571 78.8367 70.5363 89.2925 70.5363C99.7484 70.5363 108.217 70.5741 108.217 70.6183Z" fill="#263238"/>
<path d="M98.9127 68.3472C98.9127 68.3946 94.7303 68.4324 89.5702 68.4324C84.4101 68.4324 80.2246 68.3946 80.2246 68.3472C80.2246 68.2999 84.4069 68.2621 89.5702 68.2621C94.7335 68.2621 98.9127 68.2999 98.9127 68.3472Z" fill="#263238"/>
<path d="M101.162 95.8459C102.985 90.1887 99.8767 84.125 94.2195 82.3021C88.5624 80.4793 82.4986 83.5876 80.6758 89.2447C78.853 94.9019 81.9613 100.966 87.6184 102.788C93.2756 104.611 99.3393 101.503 101.162 95.8459Z" fill="#E4A70A"/>
<path d="M87.1983 89.8236C87.6051 89.792 87.9742 90.2399 88.0246 90.8297C88.0751 91.4196 87.7818 91.9211 87.3749 91.9558C86.968 91.9905 86.5958 91.5394 86.5485 90.9528C86.5012 90.3661 86.7914 89.8583 87.1983 89.8236Z" fill="#263238"/>
<path d="M94.0394 89.6976C93.6325 89.6787 93.2793 90.1455 93.2572 90.7353C93.2351 91.3251 93.5442 91.8171 93.9511 91.8329C94.358 91.8487 94.7113 91.385 94.7365 90.7952C94.7617 90.2054 94.4495 89.6976 94.0394 89.6976Z" fill="#263238"/>
<path d="M95.2129 93.2141C95.2318 93.233 95.1435 93.3434 94.97 93.5295C94.723 93.7958 94.4528 94.0396 94.1626 94.2581C93.7276 94.5837 93.2487 94.846 92.7401 95.0371C92.1097 95.2736 91.4383 95.3809 90.7656 95.3525C90.0979 95.317 89.4415 95.1654 88.8258 94.9047C88.3264 94.7026 87.8478 94.4522 87.397 94.1571C86.6337 93.6462 86.23 93.2488 86.2521 93.2109C86.2742 93.1731 86.7441 93.4948 87.5137 93.9427C87.9677 94.2011 88.4412 94.4236 88.9299 94.6082C89.5201 94.8377 90.1428 94.9729 90.7751 95.0087C91.4046 95.0353 92.0335 94.9444 92.6297 94.7406C93.1191 94.5705 93.5862 94.3417 94.0206 94.0594C94.3865 93.807 94.683 93.5957 94.8754 93.4285C95.0678 93.2614 95.1971 93.1983 95.2129 93.2141Z" fill="#263238"/>
<path d="M87.6842 87.4042C87.6652 87.4988 87.1511 87.4642 86.5392 87.5619C85.9273 87.6597 85.4479 87.8458 85.4006 87.7606C85.3533 87.6755 85.8075 87.3348 86.4888 87.2307C87.17 87.1267 87.7157 87.3159 87.6842 87.4042Z" fill="#263238"/>
<path d="M96.3486 87.9059C96.2887 87.9816 95.8345 87.7104 95.2226 87.5274C94.6107 87.3445 94.084 87.3067 94.0808 87.212C94.0777 87.1174 94.6454 86.9976 95.3235 87.212C96.0017 87.4265 96.4086 87.8397 96.3486 87.9059Z" fill="#263238"/>
<path d="M86.4291 92.4415C86.4701 92.4415 86.5395 92.5456 86.5489 92.7569C86.5539 93.0238 86.472 93.2851 86.3155 93.5013C86.1625 93.7223 85.9407 93.8864 85.6847 93.9681C85.4891 94.0249 85.3693 93.9965 85.3535 93.9681C85.3535 93.8735 85.7509 93.7347 86.0348 93.3184C86.3187 92.902 86.3344 92.4573 86.4291 92.4415Z" fill="#263238"/>
<path d="M96.1244 93.4318C96.1244 93.4728 96.0424 93.539 95.8752 93.5516C95.6555 93.5616 95.4391 93.4947 95.2633 93.3624C95.0838 93.2327 94.9554 93.044 94.9006 92.8294C94.8659 92.6653 94.9006 92.5613 94.9448 92.5581C95.0394 92.5581 95.1466 92.8735 95.462 93.0911C95.7775 93.3088 96.1023 93.3372 96.1244 93.4318Z" fill="#263238"/>
<path d="M104.07 92.4415C104.07 92.4415 104.07 92.369 104.051 92.2239L104.01 91.5931C104.01 91.4543 103.994 91.2966 103.984 91.1263C103.975 90.956 103.928 90.7699 103.899 90.568C103.871 90.3661 103.833 90.1485 103.795 89.9183C103.75 89.6715 103.692 89.4273 103.622 89.1865C103.309 87.9367 102.81 86.7414 102.139 85.6413C101.265 84.174 100.116 82.8889 98.755 81.8564L98.1778 81.4306C97.9759 81.2981 97.7646 81.1751 97.547 81.0458C97.3293 80.9165 97.1275 80.7745 96.8972 80.6704L96.2065 80.3392L95.8564 80.1721L95.4873 80.0396L94.7367 79.7652C94.4843 79.68 94.2162 79.6264 93.9544 79.557C93.6907 79.4783 93.422 79.4171 93.1502 79.3741C92.5949 79.2704 92.0332 79.205 91.469 79.1785C91.182 79.1785 90.8918 79.1407 90.6016 79.147L89.7216 79.1912C89.5734 79.1912 89.4252 79.1912 89.2769 79.2195L88.8322 79.2889C88.5389 79.3362 88.2361 79.3709 87.9396 79.434C87.3375 79.5668 86.7453 79.7407 86.167 79.9544C85.5722 80.1683 84.9926 80.4223 84.4322 80.7146C84.1515 80.8691 83.8834 81.0458 83.6058 81.2098C83.4702 81.2981 83.3251 81.3706 83.1958 81.4684L82.8047 81.7617C82.2749 82.1554 81.7712 82.5832 81.297 83.0423L80.6221 83.7867L80.4517 83.9759L80.2972 84.1778L79.9818 84.5847L79.6664 84.9915L79.3983 85.43L79.1302 85.8715L78.9977 86.0923L78.8842 86.3226L78.4331 87.2688L78.0735 88.2529C77.1588 90.9737 77.1588 93.9189 78.0735 96.6396C78.1966 96.9551 78.3164 97.2957 78.4363 97.6237C78.5561 97.9518 78.7359 98.2545 78.8873 98.57L79.0009 98.8034L79.1333 99.0241L79.4014 99.4626L79.6695 99.901L79.9849 100.311L80.3003 100.718L80.4517 100.92L80.6221 101.106L81.297 101.85C81.7711 102.311 82.2747 102.739 82.8047 103.134L83.199 103.424C83.3283 103.525 83.4734 103.598 83.609 103.686C83.8866 103.85 84.1547 104.027 84.4354 104.181C85.5453 104.755 86.7239 105.186 87.9427 105.462C88.2392 105.525 88.542 105.559 88.8385 105.607L89.2801 105.676C89.4283 105.695 89.5766 105.695 89.7248 105.705L90.6048 105.749C90.895 105.749 91.1851 105.727 91.4722 105.717C92.0364 105.691 92.5981 105.626 93.1533 105.522C93.4249 105.477 93.6935 105.416 93.9576 105.339C94.2225 105.269 94.4875 105.212 94.743 105.13L95.4905 104.856L95.8595 104.724L96.2096 104.556L96.9004 104.225C97.1233 104.111 97.3402 103.986 97.5501 103.85C97.7614 103.721 97.9759 103.598 98.1809 103.465L98.755 103.036C100.117 102.004 101.267 100.719 102.142 99.2512C102.812 98.1457 103.311 96.9451 103.622 95.6903C103.692 95.4505 103.75 95.2073 103.795 94.9617C103.833 94.7314 103.868 94.5138 103.899 94.3119C103.931 94.1101 103.966 93.924 103.984 93.7536C104.003 93.5833 104.003 93.4382 104.01 93.2868C104.029 93.0124 104.041 92.8011 104.051 92.656C104.06 92.5109 104.07 92.4384 104.07 92.4384C104.07 92.4384 104.07 92.5109 104.07 92.656C104.07 92.8011 104.054 93.0156 104.044 93.2868C104.044 93.4288 104.044 93.6022 104.025 93.7568C104.007 93.9113 103.975 94.1164 103.95 94.3182C103.925 94.5201 103.887 94.7409 103.852 94.9743C103.809 95.2208 103.753 95.4651 103.685 95.706C103.385 96.9692 102.892 98.1788 102.225 99.2922C101.351 100.774 100.198 102.072 98.8307 103.115L98.2503 103.55C98.0485 103.686 97.834 103.809 97.6195 103.941C97.405 104.074 97.1969 104.216 96.9635 104.32L96.2696 104.657L95.9163 104.837L95.5441 104.973L94.7903 105.25C94.5316 105.339 94.2636 105.392 93.9986 105.465C93.7314 105.544 93.4597 105.607 93.1848 105.654C92.6234 105.759 92.0554 105.826 91.4848 105.853C91.1978 105.853 90.9044 105.894 90.6111 105.891L89.7216 105.846C89.5702 105.846 89.4062 105.846 89.2706 105.818L88.8227 105.749C88.5231 105.701 88.2171 105.667 87.9175 105.604C87.3086 105.468 86.7091 105.293 86.1228 105.08C85.5218 104.864 84.9359 104.608 84.3691 104.314C84.0821 104.159 83.8109 103.979 83.5301 103.812C83.3866 103.733 83.2476 103.645 83.1138 103.55L82.7164 103.254C82.1794 102.857 81.6694 102.425 81.1898 101.961L80.5054 101.207L80.3319 101.018L80.1773 100.813L79.8619 100.402L79.5465 99.9861L79.2753 99.5446L79.004 99.0998L78.8684 98.8759L78.7548 98.6393L78.2975 97.6931C78.1745 97.3619 78.0546 97.0276 77.9316 96.6964C77.0065 93.9417 77.0065 90.9603 77.9316 88.2056L78.2975 87.2089L78.7548 86.2626L78.8715 86.0261L79.0072 85.8021L79.2784 85.3574L79.5497 84.9158L79.8651 84.5027L80.1805 84.0895L80.335 83.8845L80.5054 83.6952C80.7356 83.446 80.9627 83.1937 81.1898 82.9445C81.6702 82.48 82.1801 82.047 82.7164 81.6482L83.1138 81.3517C83.2463 81.2539 83.3914 81.1782 83.5301 81.0899C83.8109 80.9259 84.0853 80.7461 84.3691 80.5916C84.9359 80.2972 85.5218 80.0411 86.1228 79.8251C86.7091 79.6121 87.3086 79.4373 87.9175 79.3016C88.2171 79.2385 88.5231 79.2038 88.8227 79.1565L89.2706 79.0871C89.4188 79.0681 89.5702 79.0681 89.7185 79.0587L90.6079 79.0145C90.9044 79.0145 91.1946 79.0398 91.4848 79.0524C92.0554 79.0795 92.6234 79.1459 93.1848 79.2511C93.4592 79.2986 93.7309 79.3607 93.9986 79.4372C94.2636 79.5129 94.5317 79.5665 94.7871 79.6517L95.5441 79.9292L95.9163 80.068L96.2696 80.2383L96.9666 80.5727C97.2 80.6799 97.405 80.8313 97.6195 80.9543C97.834 81.0773 98.0485 81.2098 98.2503 81.3454L98.8307 81.7807C100.197 82.8221 101.35 84.1181 102.225 85.5971C102.892 86.7076 103.386 87.9139 103.688 89.1739C103.745 89.4357 103.83 89.6754 103.855 89.9088C103.88 90.1422 103.921 90.3598 103.953 90.5648C103.984 90.7699 104.013 90.9528 104.029 91.1263C104.044 91.2998 104.029 91.4417 104.048 91.5931C104.048 91.8706 104.066 92.082 104.073 92.2239C104.079 92.3658 104.07 92.4415 104.07 92.4415Z" fill="#1E1E1E"/>
<path d="M138.219 54.6426H40.6536V59.5094H138.219V54.6426Z" fill="#E0E0E0"/>
<path d="M43.8011 56.942C43.8011 57.0724 43.7624 57.1999 43.69 57.3083C43.6176 57.4167 43.5146 57.5012 43.3941 57.5511C43.2737 57.601 43.1411 57.614 43.0133 57.5886C42.8854 57.5632 42.7679 57.5004 42.6757 57.4082C42.5836 57.316 42.5208 57.1985 42.4953 57.0707C42.4699 56.9428 42.483 56.8102 42.5328 56.6898C42.5827 56.5693 42.6672 56.4664 42.7756 56.3939C42.884 56.3215 43.0115 56.2828 43.1419 56.2828C43.3167 56.2828 43.4844 56.3523 43.608 56.4759C43.7316 56.5995 43.8011 56.7672 43.8011 56.942Z" fill="white"/>
<path d="M45.99 56.942C45.99 57.0724 45.9514 57.1999 45.8789 57.3083C45.8065 57.4167 45.7036 57.5012 45.5831 57.5511C45.4627 57.601 45.3301 57.614 45.2022 57.5886C45.0744 57.5632 44.9569 57.5004 44.8647 57.4082C44.7725 57.316 44.7097 57.1985 44.6843 57.0707C44.6589 56.9428 44.6719 56.8102 44.7218 56.6898C44.7717 56.5693 44.8562 56.4664 44.9646 56.3939C45.073 56.3215 45.2005 56.2828 45.3308 56.2828C45.5057 56.2828 45.6733 56.3523 45.797 56.4759C45.9206 56.5995 45.99 56.7672 45.99 56.942Z" fill="white"/>
<path d="M48.1822 56.942C48.1822 57.0724 48.1435 57.1999 48.0711 57.3083C47.9987 57.4167 47.8957 57.5012 47.7752 57.5511C47.6548 57.601 47.5222 57.614 47.3944 57.5886C47.2665 57.5632 47.149 57.5004 47.0568 57.4082C46.9647 57.316 46.9019 57.1985 46.8764 57.0707C46.851 56.9428 46.8641 56.8102 46.914 56.6898C46.9638 56.5693 47.0483 56.4664 47.1567 56.3939C47.2651 56.3215 47.3926 56.2828 47.523 56.2828C47.6976 56.2837 47.8647 56.3534 47.9882 56.4768C48.1116 56.6003 48.1814 56.7675 48.1822 56.942Z" fill="white"/>
<path d="M127.457 74.457C127.457 74.5043 110.529 74.5422 89.649 74.5422C68.7689 74.5422 51.8376 74.5043 51.8376 74.457C51.8376 74.4097 68.7657 74.375 89.649 74.375C110.532 74.375 127.457 74.4128 127.457 74.457Z" fill="#E0E0E0"/>
<path d="M127.457 76.3333C127.457 76.3775 110.529 76.4153 89.649 76.4153C68.7689 76.4153 51.8376 76.3775 51.8376 76.3333C51.8376 76.2892 68.7657 76.2482 89.649 76.2482C110.532 76.2482 127.457 76.286 127.457 76.3333Z" fill="#E0E0E0"/>
<path d="M77.8434 52.5893C77.8434 52.5893 77.1779 51.0785 77.0517 50.7473C76.7142 49.8421 74.5284 43.7768 75.0551 42.8621C77.4743 38.6135 79.351 35.6077 84.1232 35.6077L92.5541 35.5509C92.5541 35.5509 100.54 33.9234 106.17 52.091L77.8434 52.5893Z" fill="#455A64"/>
<path d="M60.0605 54.1096L71.0999 51.7314L84.0759 44.9091L84.1232 35.595C82.1771 35.0588 78.4458 36.4088 71.7433 39.8247L61.7795 44.969C60.9817 45.3802 60.2882 45.9681 59.7519 46.6879C59.2157 47.4076 58.8508 48.2403 58.685 49.1224C58.5192 50.0045 58.5569 50.9129 58.7953 51.7782C59.0337 52.6436 59.4664 53.4431 60.0605 54.1159V54.1096Z" fill="#455A64"/>
<path d="M84.9019 72.1385C84.7411 71.6149 84.8515 71.2774 85.6148 71.5361C87.2991 72.1006 88.8036 71.9146 89.1694 71.5897C89.5353 71.2648 89.201 70.6434 88.6522 70.6908C88.0529 70.689 87.4566 70.6063 86.8796 70.4447C86.4111 70.3334 85.9645 70.1447 85.558 69.8865C85.2047 69.6625 84.902 69.4512 84.6339 69.2556C84.6339 69.2556 83.0789 68.1328 82.5932 67.2307L77.2659 69.5111L78.1238 72.1795C78.2257 72.6473 78.4442 73.0818 78.7591 73.4424C79.074 73.8031 79.475 74.0782 79.9248 74.2423C81.4482 74.7375 83.8706 74.5577 83.8706 74.5577C84.3153 74.2675 86.028 76.7466 86.5484 77.6203C87.0688 78.494 87.6839 78.6044 87.8857 78.0714C88.0214 77.7055 86.4979 74.9898 85.968 74.135C85.5403 73.5085 85.1828 72.8369 84.9019 72.1322" fill="#B77153"/>
<path d="M81.2937 74.5578C81.2937 74.5767 81.1612 74.5578 80.9783 74.4821C80.7417 74.3617 80.5471 74.1726 80.42 73.9396C80.2896 73.7084 80.2293 73.4443 80.2465 73.1794C80.2655 72.9776 80.3286 72.864 80.3475 72.864C80.3238 73.2064 80.4007 73.5483 80.5688 73.8476C80.737 74.1468 80.9889 74.3904 81.2937 74.5483V74.5578Z" fill="#995037"/>
<path d="M82.9844 74.6366C82.9844 74.6555 82.8583 74.6366 82.6879 74.5514C82.4669 74.4273 82.2863 74.2423 82.1675 74.0184C82.0456 73.7957 81.9887 73.5432 82.0035 73.2898C82.0224 73.0974 82.0761 72.9744 82.0981 72.9965C82.1078 73.3231 82.1818 73.6446 82.3158 73.9427C82.4927 74.2142 82.7196 74.4497 82.9844 74.6366Z" fill="#995037"/>
<path d="M59.7451 53.7406C59.7451 53.7406 76.6574 73.1761 76.6353 72.8544C76.6132 72.5327 84.2052 66.8616 84.2052 66.8616L67.6367 47.1169L59.7451 53.7406Z" fill="#455A64"/>
<path d="M70.0024 49.9305C70.0024 49.9305 70.0466 49.9652 70.1223 50.0441L70.4377 50.3973L71.5732 51.7095C72.5194 52.8197 73.8347 54.3652 75.2729 56.0779C76.7112 57.7906 78.0076 59.3487 78.938 60.4936L80.0325 61.8404L80.3258 62.2126C80.3889 62.2978 80.4236 62.3451 80.4173 62.3482C80.3738 62.3155 80.3345 62.2773 80.3006 62.2347L79.9852 61.8814C79.6981 61.566 79.3165 61.1087 78.8497 60.5693C77.9035 59.4591 76.5851 57.9136 75.1468 56.2009C73.7085 54.4882 72.4153 52.9301 71.4817 51.7852L70.3872 50.4384C70.2705 50.2901 70.1728 50.1671 70.0971 50.0662C70.0603 50.0249 70.0285 49.9793 70.0024 49.9305Z" fill="#263238"/>
<path d="M99.9188 52.1636C100.033 51.7519 100.101 51.3287 100.121 50.902C100.131 50.3966 100.039 49.8944 99.8489 49.4259C99.6592 48.9574 99.376 48.5324 99.0167 48.1768C98.6067 47.7447 98.1651 47.3725 97.8087 46.9814C97.4823 46.641 97.2252 46.2403 97.0517 45.8018C96.9328 45.5014 96.8853 45.1775 96.9129 44.8556C96.9193 44.7383 96.9493 44.6235 97.0013 44.5181C96.9448 44.9351 97.0003 45.3597 97.1621 45.7482C97.3467 46.1638 97.6041 46.543 97.9222 46.8679C98.2755 47.2432 98.7171 47.6091 99.1366 48.0507C99.546 48.4618 99.8575 48.9598 100.048 49.5079C100.199 49.9542 100.265 50.4251 100.241 50.8957C100.226 51.2119 100.165 51.5242 100.061 51.823C100.033 51.9436 99.9847 52.0587 99.9188 52.1636Z" fill="#263238"/>
<path d="M77.1083 37.213C77.1083 37.213 77.1935 37.1688 77.3543 37.0963C77.5152 37.0237 77.7644 36.9323 78.0861 36.8313C78.4808 36.7099 78.8864 36.6275 79.2972 36.5853C79.8465 36.5257 80.4021 36.5772 80.9311 36.7367C81.5722 36.9405 82.1479 37.3105 82.5996 37.8091C83.1129 38.3923 83.4632 39.1006 83.6152 39.8624C83.8059 40.6892 83.8602 41.5415 83.7761 42.3857C83.6755 43.2924 83.3503 44.1597 82.8298 44.909C82.2801 45.634 81.5931 46.2438 80.8081 46.7037C80.0668 47.1705 79.3225 47.549 78.616 47.9212L74.8594 49.8956L72.3361 51.2109L71.6422 51.561C71.5631 51.6061 71.4796 51.6431 71.3931 51.6714C71.4676 51.619 71.5456 51.5716 71.6265 51.5295L72.3046 51.151L74.8279 49.7884L78.5623 47.7855C79.2657 47.4102 80.0132 47.0254 80.7418 46.5618C81.5072 46.1116 82.1777 45.5171 82.7163 44.8112C83.2196 44.081 83.5319 43.2362 83.6247 42.3542C83.7068 41.5315 83.6568 40.7009 83.4764 39.894C83.3384 39.1618 83.0123 38.4781 82.5302 37.91C82.0992 37.4228 81.5461 37.0592 80.9279 36.8566C80.4185 36.6966 79.8828 36.6377 79.3509 36.6831C78.9444 36.7178 78.542 36.7907 78.1492 36.9007C77.8337 36.9922 77.5783 37.0742 77.4111 37.1341C77.3137 37.1726 77.2121 37.1991 77.1083 37.213Z" fill="#263238"/>
<path d="M71.8631 51.7124C71.8064 51.7282 71.6676 50.5959 70.9169 49.4572C70.1662 48.3186 69.2074 47.7193 69.2452 47.6752C69.476 47.7664 69.6894 47.8965 69.876 48.06C70.812 48.8006 71.4773 49.8295 71.7685 50.987C71.8416 51.2215 71.8736 51.467 71.8631 51.7124Z" fill="#263238"/>
<path d="M96.7176 49.5994C96.6009 49.6429 96.4806 49.6756 96.358 49.6972C96.0069 49.7649 95.6477 49.7809 95.2919 49.7445C94.7262 49.686 94.1797 49.5063 93.6896 49.2178C93.0371 48.8292 92.5205 48.2487 92.2104 47.5555C91.8274 46.7131 91.7547 45.7623 92.0053 44.8714C92.1466 44.3663 92.463 43.928 92.898 43.635C93.1355 43.4774 93.4248 43.4175 93.7054 43.4678C93.9878 43.5331 94.2367 43.6991 94.4056 43.9346C94.7173 44.4312 94.9132 44.9916 94.9787 45.5742C95.0442 46.1568 94.9777 46.7467 94.7841 47.3001C94.5957 47.8922 94.2717 48.4322 93.8379 48.8771C93.3831 49.3318 92.8162 49.6582 92.1946 49.8233C91.5823 49.9923 90.9372 50.0034 90.3194 49.8556C89.7017 49.7078 89.1315 49.4059 88.662 48.978C88.2435 48.5665 87.9294 48.0611 87.7456 47.5037C87.5618 46.9464 87.5137 46.3532 87.6054 45.7735C87.6856 45.2336 87.9027 44.7232 88.2362 44.291C88.4027 44.0799 88.6196 43.914 88.867 43.8085C89.1155 43.7058 89.3945 43.7058 89.6429 43.8085C89.867 43.9133 90.0603 44.074 90.2045 44.275C90.3486 44.4761 90.4387 44.7107 90.4661 44.9566C90.501 45.4009 90.4126 45.8461 90.2107 46.2434C89.8759 46.9176 89.4205 47.5248 88.867 48.035C88.4528 48.4196 87.9893 48.7473 87.4887 49.0096C87.1737 49.1765 86.8443 49.3148 86.5046 49.4228C86.391 49.4606 86.2996 49.4795 86.2396 49.4953C86.2091 49.5057 86.1772 49.5121 86.145 49.5142C86.1725 49.4983 86.2023 49.4866 86.2333 49.4795C86.2933 49.4575 86.3816 49.4322 86.4951 49.3881C86.8269 49.2688 87.1486 49.1233 87.4571 48.9528C87.9465 48.6828 88.3992 48.351 88.8039 47.9656C89.3402 47.4589 89.7805 46.8595 90.1034 46.1961C90.2907 45.8169 90.3713 45.3939 90.3368 44.9723C90.31 44.7507 90.2273 44.5395 90.0966 44.3586C89.9659 44.1776 89.7913 44.0328 89.5893 43.9378C89.3752 43.8495 89.1348 43.8495 88.9206 43.9378C88.6973 44.0349 88.502 44.1868 88.3529 44.3794C88.0318 44.791 87.8232 45.279 87.7473 45.7956C87.6615 46.3495 87.7088 46.916 87.8854 47.448C88.062 47.9801 88.3628 48.4624 88.7629 48.855C89.213 49.2588 89.7576 49.5425 90.3465 49.6798C90.9353 49.8171 91.5493 49.8035 92.1315 49.6404C92.7264 49.4917 93.2709 49.1868 93.7086 48.7573C94.1268 48.336 94.441 47.823 94.6264 47.2591C94.8064 46.7137 94.8698 46.1367 94.8125 45.5653C94.7885 45.289 94.7302 45.0167 94.639 44.7547C94.5632 44.4975 94.4437 44.2554 94.2858 44.0387C94.1383 43.8317 93.921 43.6849 93.6739 43.6255C93.4315 43.5813 93.1814 43.6334 92.9768 43.7706C92.5684 44.0373 92.2686 44.4411 92.1315 44.9093C91.8837 45.7684 91.9462 46.6874 92.3081 47.5051C92.6029 48.1823 93.0997 48.7518 93.7306 49.1357C94.2062 49.4263 94.7386 49.6113 95.2919 49.6783C95.7682 49.7314 96.25 49.7047 96.7176 49.5994Z" fill="#FAFAFA"/>
<path d="M97.9917 30.6745C97.6326 30.237 97.3751 29.7253 97.2378 29.1763C97.1812 28.9996 97.1747 28.8107 97.2189 28.6306C97.2416 28.54 97.294 28.4597 97.3678 28.4025C97.4416 28.3453 97.5324 28.3145 97.6258 28.3152C97.8151 28.3152 97.9412 28.5076 98.0453 28.6685C98.3538 29.1326 98.6138 29.6273 98.8212 30.1446C98.8823 30.286 98.9134 30.4385 98.9127 30.5925C98.9119 30.6693 98.8916 30.7448 98.8535 30.8116C98.8154 30.8784 98.7608 30.9343 98.695 30.9741C98.6174 31.0077 98.5321 31.0196 98.4482 31.0085C98.3643 30.9974 98.285 30.9637 98.2188 30.911C98.0919 30.8034 97.9852 30.6742 97.9034 30.5294" fill="#995037"/>
<path d="M98.8023 30.3244L97.9696 28.5771C97.8753 28.41 97.8162 28.2254 97.7961 28.0346C97.788 27.9387 97.8094 27.8427 97.8573 27.7593C97.9052 27.6759 97.9774 27.6091 98.0642 27.5678C98.1446 27.5446 98.2298 27.5435 98.3109 27.5646C98.3919 27.5857 98.4657 27.6282 98.5247 27.6876C98.6434 27.8053 98.7387 27.9444 98.8054 28.0977L99.1997 28.8641C99.3165 29.0672 99.4036 29.286 99.4583 29.5138C99.4852 29.6286 99.4875 29.7478 99.4652 29.8635C99.443 29.9793 99.3965 30.0891 99.329 30.1857C99.2568 30.279 99.1547 30.3447 99.0399 30.3717C98.925 30.3987 98.8044 30.3853 98.6982 30.3339" fill="#995037"/>
<path d="M95.0962 35.7275C95.0962 35.7275 93.9355 34.223 93.8345 33.4313C93.7336 32.6396 94.7019 31.2234 96.7868 30.908C97.5476 30.8282 98.2806 30.5781 98.9316 30.1763C99.0596 30.0894 99.1536 29.9609 99.1979 29.8126C99.2421 29.6644 99.2338 29.5054 99.1744 29.3625C98.9 28.697 98.408 27.4701 98.4458 27.2966C98.5436 26.8708 98.8212 26.8802 99.5403 27.9274C100.259 28.9746 101.095 30.0533 100.934 30.539C100.774 31.0247 98.2314 32.5292 98.2314 32.5292L98.9253 33.6489L95.0962 35.7275Z" fill="#B77153"/>
<path d="M101.991 51.1953L93.989 35.5163L99.1428 32.6302L109.968 49.7886C109.968 49.7886 110.539 50.8862 111.337 52.1699H102.262" fill="#455A64"/>
<path d="M99.0705 32.6302C99.0705 32.6302 99.0421 32.6555 98.9822 32.6933L98.7109 32.8573L97.6764 33.4598L93.9545 35.5793L93.9829 35.4847C94.762 37.0618 95.7744 38.9069 96.7932 40.9035C98.3103 43.8525 99.6319 46.5556 100.547 48.5238C101.007 49.5078 101.373 50.309 101.622 50.861C101.739 51.1291 101.833 51.3404 101.903 51.4918C101.94 51.5641 101.97 51.6403 101.991 51.7189C101.944 51.6517 101.904 51.5798 101.871 51.5044C101.796 51.3467 101.692 51.1385 101.556 50.8736L100.433 48.5585C99.4868 46.6061 98.1558 43.9125 96.6481 40.9634C95.6294 38.97 94.6232 37.1311 93.8568 35.5352L93.8284 35.4721L93.8883 35.4374L97.6385 33.3715L98.6951 32.8006L98.9759 32.6555C99.0061 32.6429 99.038 32.6344 99.0705 32.6302Z" fill="#263238"/>
<path d="M77.8435 52.5893C77.1526 51.4649 76.6986 50.2113 76.5093 48.9053C76.5597 48.9053 76.7774 49.7443 77.1401 50.7567C77.5028 51.7692 77.8876 52.5672 77.8435 52.5893Z" fill="#263238"/>
<path d="M95.4685 29.4761C96.1043 29.7339 96.8068 29.7774 97.4696 29.6C98.1324 29.4225 98.7192 29.0338 99.1411 28.4928C99.563 27.9518 99.797 27.2879 99.8076 26.6019C99.8182 25.9159 99.6048 25.2451 99.1998 24.6913C101.007 24.2339 102.133 22.1491 101.767 20.3197C101.401 18.4903 99.7707 17.0647 97.9476 16.6704C97.2506 16.5033 96.522 16.5218 95.8344 16.724C95.4926 16.829 95.1761 17.0033 94.9047 17.2361C94.6334 17.4689 94.413 17.7552 94.2573 18.0771" fill="#263238"/>
<path d="M95.213 25.3883C95.213 25.4072 94.9796 25.4514 94.598 25.6501C94.0612 25.9358 93.6358 26.3934 93.3899 26.9496C93.2093 27.3566 93.1331 27.8023 93.1684 28.2463C93.2036 28.6902 93.3492 29.1183 93.5918 29.4918C93.7302 29.7074 93.9003 29.9009 94.0965 30.0658C94.2977 30.2407 94.5255 30.3823 94.7714 30.4853C95.2888 30.7094 95.8641 30.7627 96.4138 30.6373C96.9634 30.5119 97.4588 30.2145 97.8278 29.7882C98.0037 29.5878 98.1473 29.3611 98.2536 29.1164C98.3575 28.8828 98.4265 28.6352 98.4586 28.3815C98.5042 28.0108 98.4725 27.6347 98.3654 27.2769C98.2582 26.9191 98.078 26.5874 97.8361 26.3028C97.5942 26.0182 97.2959 25.7869 96.96 25.6235C96.6242 25.4602 96.258 25.3682 95.8848 25.3536C95.4527 25.3378 95.2162 25.4072 95.213 25.3851C95.2674 25.3618 95.3247 25.3459 95.3833 25.3378C95.5481 25.3026 95.7163 25.2857 95.8848 25.2873C96.4196 25.2885 96.9425 25.4447 97.3903 25.7369C97.8381 26.0291 98.1917 26.4448 98.4081 26.9338C98.6116 27.393 98.6868 27.8987 98.6257 28.3973C98.5981 28.6667 98.5267 28.9299 98.4144 29.1764C98.3053 29.4379 98.154 29.6798 97.9665 29.8923C97.576 30.3468 97.05 30.6641 96.4658 30.7975C95.8816 30.9309 95.2701 30.8734 94.721 30.6335C94.461 30.5218 94.2205 30.3695 94.0081 30.1825C93.801 30.0083 93.6222 29.8029 93.4782 29.5738C93.2098 29.1498 93.0585 28.6622 93.0398 28.1607C93.0223 27.6293 93.1585 27.104 93.4321 26.6481C93.7057 26.1921 94.105 25.8248 94.5822 25.5901C94.7335 25.5137 94.8934 25.4555 95.0585 25.4167C95.1087 25.4014 95.1606 25.3919 95.213 25.3883Z" fill="#1E1E1E"/>
<path d="M96.5817 20.4175C97.2398 20.3801 97.8689 20.1339 98.3776 19.7146C98.8863 19.2954 99.2482 18.7249 99.4106 18.086C99.5731 17.4471 99.5277 16.7731 99.281 16.1618C99.0343 15.5505 98.5992 15.0337 98.0389 14.6865C98.3103 13.9255 98.3355 13.0983 98.1109 12.3222C97.8863 11.546 97.4233 10.8602 96.7874 10.3617C96.1515 9.86326 95.3749 9.57742 94.5676 9.54468C93.7603 9.51193 92.9631 9.73394 92.2889 10.1793C91.7763 9.27028 90.9977 8.54005 90.0577 8.08677C89.1177 7.63349 88.0614 7.47889 87.031 7.64377C86.0005 7.80864 85.0452 8.28508 84.2936 9.00902C83.542 9.73296 83.03 10.6697 82.8266 11.6932C81.9027 11.3113 80.8847 11.2187 79.907 11.4277C78.9294 11.6367 78.0382 12.1374 77.3512 12.8637C76.6642 13.59 76.2138 14.5077 76.0595 15.4954C75.9051 16.4831 76.0542 17.4945 76.4869 18.3957C75.4755 18.4819 74.5398 18.9663 73.8856 19.7423C73.2314 20.5184 72.9123 21.5225 72.9984 22.5339C73.0846 23.5452 73.569 24.4809 74.3451 25.1351C75.1211 25.7894 76.1253 26.1085 77.1366 26.0223C76.9323 26.6897 76.9398 27.4039 77.1583 28.0668C77.3767 28.7297 77.7953 29.3085 78.3564 29.7236C78.9174 30.1387 79.5934 30.3697 80.2912 30.3846C80.989 30.3996 81.6742 30.1979 82.2526 29.8072C82.622 30.4028 83.1532 30.881 83.784 31.1861C84.4149 31.4913 85.1195 31.6109 85.8158 31.5309C86.512 31.4509 87.1711 31.1746 87.7163 30.7343C88.2615 30.294 88.6704 29.7077 88.8951 29.0439" fill="#263238"/>
<path d="M92.7846 35.2164C92.8508 33.6804 92.9328 32.2894 92.9328 32.2894C92.9328 32.2894 96.3676 31.8573 96.5159 28.3531C96.6641 24.8489 96.314 16.7807 96.314 16.7807L90.0058 13.7465L83.2056 19.222L84.2716 35.3079C84.3464 36.4224 84.8548 37.4633 85.6879 38.2074C86.521 38.9515 87.6125 39.3396 88.7284 39.2884C89.7904 39.2375 90.7952 38.7917 91.5455 38.0384C92.2959 37.2851 92.7378 36.2787 92.7846 35.2164Z" fill="#B77153"/>
<path d="M96.1467 22.7803C96.0899 22.8402 95.7619 22.5658 95.2919 22.5469C94.822 22.5279 94.4719 22.7676 94.4246 22.7046C94.3773 22.6415 94.4561 22.5689 94.6075 22.4554C94.8111 22.313 95.0565 22.2431 95.3046 22.2567C95.5533 22.2668 95.7917 22.3588 95.9827 22.5185C96.1246 22.6446 96.1719 22.755 96.1467 22.7803Z" fill="#263238"/>
<path d="M90.9358 22.7803C90.879 22.8402 90.5541 22.5658 90.081 22.5469C89.6079 22.5279 89.2641 22.7676 89.2136 22.7046C89.1632 22.6415 89.2452 22.5689 89.3966 22.4554C89.6001 22.313 89.8456 22.2431 90.0936 22.2567C90.3423 22.2668 90.5807 22.3588 90.7717 22.5185C90.9137 22.6446 90.961 22.755 90.9358 22.7803Z" fill="#263238"/>
<path d="M92.7022 26.3157C92.951 26.2416 93.209 26.2023 93.4686 26.199C93.5885 26.199 93.702 26.1675 93.7241 26.0823C93.7368 25.9498 93.7117 25.8163 93.6516 25.6975C93.5422 25.3821 93.4287 25.0509 93.3109 24.704C92.8378 23.2878 92.5003 22.1271 92.5539 22.1081C92.6076 22.0892 93.0302 23.2215 93.5002 24.6314L93.8156 25.6313C93.8866 25.7906 93.9054 25.9684 93.8692 26.1391C93.851 26.1821 93.8234 26.2206 93.7885 26.2517C93.7536 26.2828 93.7122 26.3057 93.6673 26.3189C93.6015 26.3361 93.5335 26.3436 93.4655 26.3409C93.2111 26.3665 92.9544 26.3581 92.7022 26.3157Z" fill="#263238"/>
<path d="M92.9328 32.2926C91.305 32.25 89.7252 31.7325 88.3877 30.8038C88.3877 30.8038 89.4569 33.3555 92.8728 33.1536L92.9328 32.2926Z" fill="#995037"/>
<path d="M88.0564 13.9423C87.5093 14.7321 87.2214 15.6726 87.2327 16.6333C87.244 17.5941 87.554 18.5275 88.1195 19.3042C88.6305 19.9729 89.4001 20.5186 90.2422 20.487C91.0844 20.4555 91.8981 19.6607 91.7183 18.8374C91.6364 19.0958 91.6159 19.3698 91.6585 19.6375C91.7011 19.9052 91.8057 20.1593 91.9638 20.3794C92.122 20.5996 92.3293 20.7798 92.5694 20.9057C92.8095 21.0316 93.0756 21.0997 93.3467 21.1045C93.6177 21.1094 93.8861 21.0509 94.1306 20.9337C94.375 20.8166 94.5887 20.6439 94.7547 20.4296C94.9206 20.2152 95.0342 19.9651 95.0864 19.6991C95.1386 19.4331 95.128 19.1585 95.0554 18.8974C95.1209 19.2757 95.2545 19.639 95.4496 19.9698C95.5495 20.1348 95.6924 20.2695 95.8629 20.3595C96.0335 20.4495 96.2254 20.4914 96.4179 20.4807C96.9447 20.4113 97.2506 19.8499 97.3642 19.3232C97.5274 18.5396 97.4901 17.7275 97.2558 16.9622C97.0214 16.1969 96.5976 15.5031 96.0237 14.9453C95.4408 14.399 94.7504 13.9803 93.9966 13.7158C93.2428 13.4513 92.4422 13.3469 91.6458 13.4092C90.0437 13.5503 88.5327 14.2154 87.3467 15.3017" fill="#263238"/>
<path d="M88.5011 15.1786C88.9455 16.172 89.1858 17.2446 89.2077 18.3327C89.2266 19.4268 88.8194 20.4854 88.0722 21.2849C87.694 21.6741 87.2132 21.948 86.6856 22.0747C86.158 22.2015 85.6052 22.1759 85.0916 22.0009C85.2299 22.4705 85.2626 22.9648 85.1873 23.4485C85.1121 23.9322 84.9307 24.3932 84.6563 24.7986C84.0696 25.5777 82.9152 25.9498 82.0605 25.4799C81.2846 25.0572 80.9502 24.1173 80.843 23.2405C80.7142 22.1762 80.8256 21.0966 81.169 20.081C81.5124 19.0655 82.0791 18.1399 82.8274 17.3722C83.5757 16.6045 84.4866 16.0144 85.493 15.6451C86.4994 15.2759 87.5759 15.1369 88.6431 15.2385" fill="#263238"/>
<path d="M84.1674 23.5276C83.7005 23.2374 83.0634 23.4739 82.6912 23.8808C82.3982 24.2025 82.2172 24.6104 82.1752 25.0435C82.1332 25.4766 82.2325 25.9117 82.4582 26.2837C82.684 26.6557 83.0241 26.9446 83.4276 27.1073C83.8312 27.27 84.2766 27.2977 84.6972 27.1863" fill="#B77153"/>
<path d="M84.0603 26.1358C84.0603 26.1547 83.9057 26.1768 83.6629 26.1106C83.502 26.0689 83.3532 25.9902 83.2283 25.8806C83.1034 25.7711 83.006 25.6338 82.9437 25.4797C82.88 25.2968 82.8868 25.0966 82.9627 24.9183C83.0264 24.7795 83.1267 24.6607 83.2528 24.5745C83.4705 24.4326 83.6345 24.4357 83.6376 24.4547C83.6408 24.4736 83.4957 24.5209 83.3222 24.6691C83.212 24.7573 83.1315 24.8772 83.0915 25.0125C83.0514 25.1478 83.0538 25.2922 83.0983 25.4261C83.1534 25.5595 83.2353 25.68 83.3389 25.7804C83.4426 25.8808 83.5657 25.9588 83.7007 26.0096C83.931 26.0885 84.0634 26.1106 84.0603 26.1358Z" fill="#995037"/>
<path d="M91.2262 21.3197C91.182 21.4553 90.6679 21.4048 90.0591 21.4332C89.4504 21.4616 88.9426 21.5373 88.889 21.4048C88.8354 21.2724 89.3306 20.9538 90.0402 20.9286C90.7499 20.9033 91.2735 21.1904 91.2262 21.3197Z" fill="#263238"/>
<path d="M96.1339 21.222C96.0803 21.2693 95.9762 21.222 95.8532 21.2062C95.7128 21.1725 95.5676 21.1639 95.4242 21.181C95.2413 21.181 95.0394 21.2315 94.8849 21.2283C94.7303 21.2252 94.6231 21.1936 94.6042 21.1242C94.5852 21.0548 94.6546 20.9728 94.7839 20.8845C94.9638 20.7697 95.1679 20.6985 95.3801 20.6764C95.504 20.6602 95.63 20.6735 95.7478 20.7151C95.8656 20.7568 95.972 20.8256 96.0582 20.9161C96.1749 21.058 96.1844 21.1779 96.1339 21.222Z" fill="#263238"/>
<path d="M91.8855 27.2114C92.0153 27.1274 92.1618 27.0726 92.3148 27.0508C92.4679 27.029 92.6238 27.0408 92.7719 27.0853C92.9182 27.1359 93.0422 27.2361 93.1223 27.3687C93.2024 27.5012 93.2335 27.6576 93.2103 27.8107C93.1673 27.975 93.0665 28.1184 92.9264 28.2144C92.8242 28.2935 92.7065 28.3501 92.581 28.3805C92.4554 28.411 92.3248 28.4146 92.1978 28.3911C92.0705 28.3657 91.9525 28.3063 91.8564 28.219C91.7603 28.1318 91.6897 28.0201 91.6521 27.8959C91.6209 27.7702 91.632 27.6376 91.684 27.519C91.7359 27.4003 91.8256 27.3021 91.9392 27.2398" fill="#995037"/>
<path d="M93.6076 27.5869C93.6076 27.5869 93.494 27.6846 93.2701 27.7319C92.9718 27.7939 92.6617 27.7642 92.3806 27.6468C92.1002 27.5283 91.861 27.3297 91.693 27.0759C91.5669 26.8835 91.5416 26.7416 91.5605 26.7321C91.5795 26.7226 91.6489 26.8425 91.7876 27.0065C91.9668 27.2159 92.1911 27.382 92.4437 27.4922C92.6998 27.5947 92.9761 27.6368 93.2511 27.6152C93.4656 27.5995 93.5981 27.5616 93.6076 27.5869Z" fill="#263238"/>
<path d="M86.4951 29.2586C86.473 29.2586 86.4951 29.0126 86.3753 28.5963C86.2165 28.0105 85.8655 27.495 85.3786 27.1328C85.0469 26.883 84.6612 26.7144 84.2526 26.6407C83.7843 26.5575 83.3025 26.5988 82.8553 26.7606C82.6141 26.8477 82.3875 26.971 82.1835 27.1264C81.9677 27.2828 81.7791 27.4736 81.6252 27.691C81.2914 28.1449 81.1113 28.6936 81.1113 29.257C81.1113 29.8205 81.2914 30.3692 81.6252 30.823C81.7791 31.0405 81.9677 31.2313 82.1835 31.3876C82.3875 31.543 82.6141 31.6664 82.8553 31.7535C83.2062 31.8807 83.5797 31.9336 83.9522 31.9088C84.3246 31.884 84.6879 31.7821 85.0188 31.6095C85.3498 31.4369 85.6413 31.1974 85.8748 30.9062C86.1083 30.615 86.2787 30.2784 86.3753 29.9178C86.4857 29.5015 86.473 29.2555 86.4951 29.2586C86.4999 29.3163 86.4999 29.3744 86.4951 29.4321C86.4948 29.601 86.4747 29.7693 86.4352 29.9336C86.2938 30.547 85.9437 31.0921 85.4448 31.4759C85.1012 31.7444 84.6993 31.928 84.2715 32.0121C83.7781 32.1069 83.2684 32.0677 82.7954 31.8986C82.5396 31.8087 82.2992 31.68 82.0825 31.5169C81.8528 31.3519 81.6515 31.1505 81.4864 30.9208C81.1283 30.4401 80.9348 29.8565 80.9348 29.257C80.9348 28.6575 81.1283 28.074 81.4864 27.5933C81.6515 27.3635 81.8528 27.1622 82.0825 26.9971C82.2992 26.8341 82.5396 26.7054 82.7954 26.6155C83.2366 26.4557 83.7112 26.4106 84.1747 26.4845C84.6381 26.5585 85.0752 26.749 85.4448 27.0381C85.9437 27.4219 86.2938 27.9671 86.4352 28.5805C86.4747 28.7447 86.4948 28.9131 86.4951 29.082C86.4999 29.1408 86.4999 29.1998 86.4951 29.2586Z" fill="#1E1E1E"/>
<path d="M96.131 13.5762C96.1615 13.5783 96.1914 13.5857 96.2193 13.5983C96.3015 13.6307 96.3765 13.6789 96.4401 13.7402C96.5592 13.8587 96.6471 14.0047 96.6961 14.1654C96.7451 14.3261 96.7536 14.4964 96.7208 14.6612C96.6539 14.9115 96.5147 15.1365 96.3206 15.3082C96.1265 15.4798 95.8861 15.5905 95.6295 15.6263C94.9804 15.7043 94.3249 15.5477 93.7812 15.1848L93.1314 14.8094L93.8443 15.0428C93.9668 15.0862 94.0765 15.1598 94.1631 15.2569C94.2496 15.3539 94.3103 15.4712 94.3395 15.5979C94.3737 15.724 94.3824 15.8556 94.365 15.985C94.3477 16.1145 94.3047 16.2392 94.2385 16.3518C94.0941 16.5783 93.8683 16.7408 93.6077 16.806C93.3449 16.8723 93.0691 16.8657 92.8097 16.787C92.2291 16.5608 91.7437 16.1422 91.4345 15.6011L90.9551 14.9451L91.5355 15.5096C91.6857 15.6648 91.7935 15.8558 91.8488 16.0646C91.904 16.2733 91.9047 16.4928 91.8509 16.7019C91.8088 16.893 91.7239 17.072 91.6027 17.2255C91.4814 17.3791 91.3268 17.503 91.1507 17.5882C90.8616 17.7255 90.5395 17.7779 90.2218 17.7394C89.9041 17.7009 89.6039 17.573 89.356 17.3706C89.0288 17.1046 88.7874 16.748 88.6621 16.3455C88.629 16.2424 88.6037 16.1369 88.5864 16.0301C88.5829 15.9923 88.5829 15.9543 88.5864 15.9165C88.6022 15.9165 88.6211 16.0679 88.722 16.3297C88.8616 16.7022 89.1005 17.0295 89.4128 17.2759C89.6474 17.4569 89.9277 17.5689 90.2224 17.5996C90.5171 17.6302 90.8145 17.5782 91.0813 17.4494C91.2369 17.3717 91.3731 17.2598 91.4796 17.1222C91.586 16.9846 91.6601 16.8248 91.6963 16.6546C91.7423 16.472 91.7412 16.2808 91.6933 16.0988C91.6453 15.9168 91.5519 15.7499 91.4219 15.6137L91.5449 15.5096C91.8347 16.0159 92.2871 16.4094 92.8286 16.6262C93.0499 16.708 93.2914 16.7173 93.5183 16.6527C93.7451 16.588 93.9455 16.4528 94.0903 16.2666C94.3174 15.8944 94.1818 15.3204 93.797 15.1911L93.86 15.0491C94.3695 15.3991 94.9858 15.5588 95.6011 15.5002C95.839 15.472 96.0634 15.3744 96.2462 15.2196C96.429 15.0648 96.5623 14.8596 96.6293 14.6296C96.6623 14.4776 96.6592 14.32 96.6203 14.1694C96.5814 14.0188 96.5078 13.8793 96.4054 13.7623C96.323 13.6878 96.2306 13.6252 96.131 13.5762Z" fill="#455A64"/>
<path d="M87.7158 19.2127C87.7158 19.2127 87.7158 19.2347 87.6748 19.2726C87.6293 19.3288 87.5798 19.3815 87.5265 19.4303C87.3226 19.6159 87.0834 19.7585 86.8232 19.8498C86.4156 19.9916 85.9732 19.9983 85.5615 19.8687C85.2889 19.7833 85.0364 19.6434 84.8195 19.4574C84.6026 19.2714 84.4258 19.0433 84.2999 18.7868L84.4324 18.7679C84.3812 19.0873 84.2549 19.39 84.0638 19.6509C83.8727 19.9119 83.6223 20.1237 83.3332 20.2689C83.0442 20.4141 82.7248 20.4885 82.4013 20.4859C82.0779 20.4834 81.7596 20.404 81.4729 20.2543C81.1862 20.1046 80.9391 19.8889 80.7521 19.625C80.5652 19.361 80.4436 19.0564 80.3975 18.7363C80.3513 18.4161 80.382 18.0896 80.4869 17.7836C80.5918 17.4776 80.7679 17.2009 81.0007 16.9764L81.1111 17.0931C80.7387 17.4024 80.2705 17.573 79.7864 17.5757C79.347 17.5842 78.9144 17.4659 78.5405 17.235C78.2062 17.0276 77.945 16.7211 77.793 16.3582C77.6692 16.049 77.6164 15.7159 77.6384 15.3836C77.6649 14.9114 77.8468 14.4612 78.1557 14.103C78.2636 13.9752 78.394 13.8683 78.5405 13.7876C78.5405 13.7876 78.3986 13.8948 78.1998 14.144C77.9177 14.5058 77.7566 14.9472 77.7394 15.4057C77.7263 15.7212 77.7834 16.0358 77.9065 16.3266C78.0539 16.6609 78.3005 16.9418 78.613 17.1309C78.9646 17.3466 79.3709 17.4561 79.7832 17.4464C80.2301 17.4401 80.6616 17.2822 81.007 16.9985L81.1142 17.1152C80.846 17.3903 80.6649 17.7385 80.5936 18.1161C80.5224 18.4937 80.5641 18.8839 80.7137 19.2379C80.8968 19.6243 81.2031 19.939 81.5844 20.1325C81.9658 20.326 82.4006 20.3875 82.8206 20.3071C83.1885 20.2205 83.5235 20.0294 83.7853 19.7569C84.0472 19.4844 84.2248 19.1421 84.2967 18.7711L84.3314 18.5503L84.4292 18.7522C84.5441 18.9932 84.7059 19.2088 84.9052 19.3865C85.1046 19.5641 85.3373 19.7002 85.5899 19.7867C85.9841 19.9178 86.4101 19.9178 86.8042 19.7867C87.0592 19.7082 87.2968 19.5819 87.5044 19.4145C87.6558 19.282 87.7158 19.2063 87.7158 19.2127Z" fill="#455A64"/>
<path d="M81.4738 24.8208C81.3945 24.8937 81.3011 24.9495 81.1994 24.9848C80.9234 25.0997 80.6237 25.1462 80.3258 25.1205C79.8647 25.0864 79.4345 24.8763 79.124 24.5338C78.9284 24.3171 78.7839 24.0592 78.7015 23.7791C78.6191 23.499 78.6007 23.2039 78.6478 22.9158L78.7929 22.9788C78.4814 23.3913 78.0759 23.7233 77.6101 23.9471C77.2508 24.1177 76.8563 24.2009 76.4588 24.19C76.0884 24.1796 75.726 24.0801 75.4022 23.8998C75.1226 23.7558 74.8838 23.5436 74.7079 23.2828C74.532 23.0221 74.4248 22.7212 74.396 22.4079C74.3585 21.9888 74.4702 21.5699 74.7114 21.2252C74.7795 21.1353 74.8591 21.0547 74.948 20.9854C74.9773 20.9582 75.0116 20.9368 75.0489 20.9224C75.0489 20.9224 74.9259 21.0296 74.7651 21.263C74.5539 21.6018 74.4628 22.0017 74.5064 22.3985C74.5392 22.6914 74.6454 22.9714 74.8153 23.2123C74.9851 23.4533 75.213 23.6475 75.4779 23.7768C75.7944 23.9443 76.1462 24.0342 76.5043 24.0391C76.8624 24.0441 77.2165 23.9639 77.5375 23.8052C77.9795 23.5944 78.3654 23.2821 78.6635 22.8937L78.8686 22.6287L78.8086 22.9441C78.764 23.2089 78.7784 23.4802 78.8509 23.7387C78.9235 23.9971 79.0523 24.2364 79.2281 24.4392C79.5128 24.7644 79.9088 24.9714 80.3384 25.0195C80.6219 25.0528 80.9093 25.0237 81.1805 24.9344C81.3698 24.8681 81.4675 24.8114 81.4738 24.8208Z" fill="#455A64"/>
<path d="M99.3353 17.989C99.4115 18.1735 99.4356 18.3753 99.4047 18.5725C99.3674 19.0575 99.1631 19.5146 98.8267 19.866C98.4903 20.2174 98.0425 20.4413 97.5596 20.4997C97.3648 20.5409 97.1624 20.5256 96.9761 20.4555C96.9761 20.4271 97.2 20.4555 97.5407 20.383C97.9858 20.2991 98.3934 20.0778 98.7063 19.7502C99.0192 19.4227 99.2215 19.0053 99.2849 18.5568C99.3417 18.213 99.307 17.9922 99.3353 17.989Z" fill="#455A64"/>
<path d="M101.278 21.2915C101.321 21.3649 101.348 21.4466 101.357 21.5312C101.395 21.7633 101.372 22.0013 101.291 22.222C101.233 22.3939 101.133 22.5485 100.999 22.6715C100.866 22.7944 100.704 22.8817 100.528 22.9253C100.316 22.9686 100.097 22.9489 99.8969 22.8686C99.7846 22.8261 99.6821 22.7611 99.5959 22.6776C99.5096 22.594 99.4414 22.4937 99.3954 22.3828L99.5531 22.3292C99.5819 22.4318 99.5957 22.5381 99.5941 22.6446C99.5847 22.8883 99.505 23.124 99.3645 23.3233C99.224 23.5225 99.0287 23.6768 98.8024 23.7675C98.6001 23.8416 98.3798 23.8515 98.1716 23.7959C97.9961 23.7456 97.8343 23.6561 97.6985 23.5341C97.4983 23.3642 97.3634 23.1301 97.3168 22.8717C97.2884 22.6919 97.3168 22.591 97.3168 22.5941C97.3168 22.5973 97.3168 22.6919 97.3704 22.8591C97.4394 23.0892 97.5769 23.2928 97.7647 23.4426C97.8964 23.5555 98.0556 23.6317 98.2262 23.6632C98.3968 23.6948 98.5728 23.6807 98.7362 23.6224C98.9306 23.54 99.0976 23.404 99.2176 23.2304C99.3377 23.0567 99.4059 22.8524 99.4143 22.6415C99.416 22.554 99.4043 22.4668 99.3796 22.3828L99.5405 22.3292C99.6252 22.4993 99.7643 22.6364 99.9356 22.7186C100.107 22.8009 100.301 22.8237 100.487 22.7834C100.641 22.7477 100.785 22.6747 100.905 22.5708C101.024 22.4669 101.117 22.3352 101.174 22.1873C101.258 21.9879 101.296 21.7723 101.285 21.5564C101.278 21.3798 101.25 21.2947 101.278 21.2915Z" fill="#455A64"/>
<path d="M91.6457 25.9847C91.6678 25.9847 91.6804 26.0573 91.6457 26.1645C91.6027 26.303 91.52 26.4258 91.4079 26.5178C91.2957 26.6097 91.1591 26.6667 91.0149 26.6818C90.9045 26.6818 90.8383 26.6629 90.8414 26.6408C90.8446 26.6187 91.0843 26.5714 91.2988 26.3853C91.5132 26.1992 91.5984 25.9847 91.6457 25.9847Z" fill="#263238"/>
<path d="M181.765 133.483C181.765 133.53 141.077 133.565 90.8886 133.565C40.7005 133.565 0 133.539 0 133.483C0 133.426 40.6879 133.401 90.8886 133.401C141.089 133.401 181.765 133.438 181.765 133.483Z" fill="#263238"/>
<path d="M55.9851 0.00103984C55.9121 0.0144036 55.8384 0.0238793 55.7643 0.0294268L55.1335 0.0830472C54.7854 0.106586 54.4396 0.156138 54.099 0.231289C53.8939 0.275447 53.67 0.294372 53.4429 0.363762C53.2158 0.433152 52.9698 0.502542 52.7143 0.575086C51.4702 0.974444 50.2986 1.57194 49.2448 2.34454C47.8598 3.37882 46.707 4.69179 45.8604 6.19885C44.5627 8.53716 44.003 11.2135 44.255 13.8759C44.2739 14.1661 44.337 14.4531 44.378 14.7465C44.4171 15.0413 44.4761 15.3332 44.5547 15.6202C44.8328 16.8234 45.29 17.978 45.9109 19.0455C47.2324 21.3555 49.2741 23.1691 51.7239 24.2088C53.0147 24.7477 54.3944 25.0418 55.7927 25.0762C57.2328 25.1332 58.6701 24.906 60.0224 24.4075L60.4356 24.2498L60.4892 24.2309L60.5396 24.2529L66.5324 27.2115L66.359 27.366L64.4476 21.6603L64.4255 21.5877L64.476 21.5341C65.9069 20.0624 66.9599 18.2658 67.5449 16.2983C68.071 14.5004 68.2044 12.6105 67.936 10.7565C67.5079 7.6665 65.9615 4.84075 63.5897 2.8145C62.6911 2.07802 61.6996 1.46295 60.6406 0.98512C59.8407 0.65148 59.009 0.399963 58.1583 0.234444L57.231 0.0893555L56.5465 0.0483518L56.127 0.0199649C56.0793 0.0195371 56.0318 0.0142532 55.9851 0.00419461C56.0323 -0.0013982 56.0799 -0.0013982 56.127 0.00419461H56.5465L57.2373 0.0231185L58.1835 0.152437C59.0476 0.304166 59.8933 0.546258 60.7068 0.874726C61.7844 1.34413 62.7934 1.9574 63.7064 2.6978C64.8141 3.62775 65.7558 4.73908 66.4914 5.98437C67.3504 7.43773 67.9171 9.04487 68.1599 10.7155C68.4405 12.5997 68.3114 14.5222 67.7814 16.3519C67.1925 18.3591 66.1241 20.1928 64.6684 21.695L64.6904 21.5688C65.3213 23.3982 65.9521 25.3064 66.6081 27.2714L66.7059 27.5584L66.4347 27.426L60.4419 24.4706H60.5459L60.1233 24.6314C58.7404 25.1388 57.2707 25.3671 55.799 25.3032C54.3703 25.2687 52.9605 24.9681 51.6419 24.4169C49.1443 23.3516 47.0647 21.4969 45.7217 19.137C45.0918 18.0557 44.6272 16.8862 44.3433 15.6675C44.2637 15.3756 44.2057 15.0784 44.1698 14.778C44.1288 14.4815 44.0626 14.1913 44.0468 13.8949C43.9929 13.3162 43.9782 12.7345 44.0027 12.1538C44.0354 11.0533 44.2038 9.96111 44.5042 8.90191C44.7927 7.92961 45.1927 6.99397 45.6964 6.11369C46.5664 4.58942 47.7487 3.26626 49.1659 2.23099C50.2345 1.45973 51.4227 0.869406 52.6828 0.483618L53.424 0.281755C53.6415 0.230574 53.8615 0.19057 54.0832 0.1619C54.4272 0.0914159 54.7763 0.0492197 55.1272 0.0357351L55.7738 0.00419461L55.9851 0.00103984Z" fill="#263238"/>
<path d="M58.8048 11.0027H57.9311L55.9945 8.36905L55.9756 6.62483C55.9756 6.62483 54.6256 6.5586 54.8086 8.83271C54.9915 11.1068 54.8086 10.5328 54.8086 10.5328C54.8086 10.5328 51.9446 10.5769 51.7081 10.8293C51.5378 11.0122 51.4905 13.8603 51.481 15.4027C51.4637 15.781 51.5753 16.154 51.7977 16.4605C52.02 16.7671 52.3398 16.9891 52.7048 17.0901C52.808 17.1155 52.9139 17.1282 53.0202 17.128C53.7362 17.128 57.3792 16.4972 57.3792 16.4972L58.89 16.4782L58.8048 11.0027Z" fill="#1E1E1E"/>
<path d="M61.2998 10.4948L60.8298 16.4718L59.3348 16.4907L59.2686 10.6398L61.2998 10.4948Z" fill="#1E1E1E"/>
</svg>
