<svg width="19" height="20" viewBox="0 0 19 20" fill="none" xmlns="http://www.w3.org/2000/svg">
<g id="vuesax/linear/glass">
<g id="glass">
<path id="Vector" d="M7.62036 14.1069L10.6201 14.1425" stroke="#111928" stroke-linecap="round" stroke-linejoin="round"/>
<path id="Vector_2" d="M1.62074 14.0356L1.70984 6.53614C1.74548 3.53635 2.50434 2.79532 5.50413 2.83096" stroke="#111928" stroke-linecap="round" stroke-linejoin="round"/>
<path id="Vector_3" d="M16.6197 14.2138L16.7088 6.71433C16.7445 3.71454 16.0034 2.95569 13.0037 2.92004" stroke="#111928" stroke-linecap="round" stroke-linejoin="round"/>
<path id="Vector_4" d="M7.63454 12.9145L7.60522 15.3818C7.5874 16.8817 6.98032 17.4745 5.48042 17.4567L3.68055 17.4353C2.18066 17.4175 1.58783 16.8104 1.60565 15.3105L1.63496 12.8432C1.65278 11.3433 2.25987 10.7505 3.75976 10.7683L5.55964 10.7897C7.05953 10.8075 7.65236 11.4146 7.63454 12.9145Z" stroke="#111928" stroke-linecap="round" stroke-linejoin="round"/>
<path id="Vector_5" d="M16.6338 13.0214L16.6045 15.4887C16.5867 16.9886 15.9796 17.5814 14.4797 17.5636L12.6798 17.5422C11.1799 17.5244 10.5871 16.9173 10.6049 15.4174L10.6342 12.9501C10.6521 11.4502 11.2591 10.8574 12.759 10.8752L14.5589 10.8966C16.0588 10.9144 16.6516 11.5215 16.6338 13.0214Z" stroke="#111928" stroke-linecap="round" stroke-linejoin="round"/>
</g>
</g>
</svg>
