<svg width="42" height="42" viewBox="0 0 42 42" fill="none" xmlns="http://www.w3.org/2000/svg">
<g id="Integration icons">
<path id="apple" d="M33.2857 14.8571C33.1395 14.9424 29.6584 16.7427 29.6584 20.7343C29.8225 25.2865 34.0514 26.883 34.1239 26.883C34.0514 26.9683 33.4854 29.0577 31.8091 31.2479C30.4787 33.1346 29.0021 35.0368 26.7599 35.0368C24.627 35.0368 23.8614 33.7794 21.4004 33.7794C18.7575 33.7794 18.0097 35.0368 15.9862 35.0368C13.744 35.0368 12.158 33.0327 10.7551 31.1637C8.93253 28.7176 7.38341 24.8788 7.32873 21.193C7.29187 19.2398 7.69371 17.3199 8.71378 15.6891C10.1535 13.4125 12.7239 11.867 15.5309 11.8161C17.6816 11.7485 19.5957 13.192 20.9082 13.192C22.166 13.192 24.5177 11.8161 27.1784 11.8161C28.3269 11.8172 31.3894 12.1396 33.2857 14.8571ZM20.7263 11.4261C20.3435 9.64245 21.4004 7.85879 22.3848 6.72102C23.6426 5.34506 25.6293 4.41113 27.3425 4.41113C27.4518 6.19479 26.7587 7.9441 25.5199 9.21814C24.4083 10.5941 22.4942 11.6299 20.7263 11.4261Z" fill="black"/>
</g>
</svg>
