<svg width="19" height="20" viewBox="0 0 19 20" fill="none" xmlns="http://www.w3.org/2000/svg">
<g id="Linear / Design, Tools / Pallete 2">
<path id="Vector" d="M1.60646 9.93046C1.56061 13.7899 4.42296 17.0046 8.15233 17.4789C8.70264 17.5489 9.23957 17.3203 9.63646 16.9317C10.1324 16.4462 10.1418 15.6496 9.6576 15.1524C9.27005 14.7545 8.95727 14.1641 9.25866 13.6972C10.4634 11.8306 16.5328 16.2222 16.6054 10.1087C16.6547 5.95601 13.3371 2.54972 9.19527 2.50051C5.05343 2.4513 1.6558 5.7778 1.60646 9.93046Z" stroke="#111928"/>
<circle id="Vector_2" cx="13.2356" cy="9.67402" r="0.75" transform="rotate(0.680732 13.2356 9.67402)" stroke="#111928" stroke-width="0.75"/>
<circle id="Vector_3" cx="4.98607" cy="9.57603" r="0.75" transform="rotate(0.680732 4.98607 9.57603)" stroke="#111928" stroke-width="0.75"/>
<path id="Vector_4" d="M7.71456 6.23304C7.7121 6.44014 7.54222 6.60602 7.33513 6.60356C7.12803 6.6011 6.96215 6.43122 6.96461 6.22413C6.96707 6.01704 7.13695 5.85115 7.34404 5.85361C7.55113 5.85607 7.71702 6.02595 7.71456 6.23304Z" stroke="#111928" stroke-width="1.5"/>
<path id="Vector_5" d="M11.4006 6.27699C11.3981 6.48408 11.2283 6.64997 11.0212 6.64751C10.8141 6.64505 10.6482 6.47517 10.6506 6.26808C10.6531 6.06099 10.823 5.8951 11.0301 5.89756C11.2372 5.90002 11.4031 6.0699 11.4006 6.27699Z" stroke="#111928" stroke-width="1.5"/>
</g>
</svg>
