<svg width="16" height="16" viewBox="0 0 16 16" fill="none" xmlns="http://www.w3.org/2000/svg">
<path d="M8.09998 11V12.4" stroke="white" stroke-linecap="round" stroke-linejoin="round"/>
<path d="M4.76672 14.6666H11.4334V14C11.4334 13.2666 10.8334 12.6666 10.1001 12.6666H6.10006C5.36672 12.6666 4.76672 13.2666 4.76672 14V14.6666V14.6666Z" stroke="white" stroke-miterlimit="10"/>
<path d="M4.09998 14.6666H12.1" stroke="white" stroke-linecap="round" stroke-linejoin="round"/>
<path d="M8.00004 10.6667C5.42004 10.6667 3.33337 8.58004 3.33337 6.00004V4.00004C3.33337 2.52671 4.52671 1.33337 6.00004 1.33337H10C11.4734 1.33337 12.6667 2.52671 12.6667 4.00004V6.00004C12.6667 8.58004 10.58 10.6667 8.00004 10.6667Z" stroke="white" stroke-linecap="round" stroke-linejoin="round"/>
<path d="M3.64665 7.76669C3.14665 7.60669 2.70665 7.31336 2.35999 6.96669C1.75999 6.30002 1.35999 5.50002 1.35999 4.56669C1.35999 3.63336 2.09332 2.90002 3.02665 2.90002H3.45999C3.32665 3.20669 3.25999 3.54669 3.25999 3.90002V5.90002C3.25999 6.56669 3.39999 7.19336 3.64665 7.76669Z" stroke="white" stroke-linecap="round" stroke-linejoin="round"/>
<path d="M12.3534 7.76669C12.8534 7.60669 13.2934 7.31336 13.6401 6.96669C14.2401 6.30002 14.6401 5.50002 14.6401 4.56669C14.6401 3.63336 13.9067 2.90002 12.9734 2.90002H12.5401C12.6734 3.20669 12.7401 3.54669 12.7401 3.90002V5.90002C12.7401 6.56669 12.6001 7.19336 12.3534 7.76669Z" stroke="white" stroke-linecap="round" stroke-linejoin="round"/>
</svg>
