<svg width="19" height="20" viewBox="0 0 19 20" fill="none" xmlns="http://www.w3.org/2000/svg">
<g id="Linear / Home, Furniture / Chandelier">
<path id="Vector" d="M7.14038 3.97369L11.6401 4.02716" stroke="#111928" stroke-linecap="round"/>
<path id="Vector_2" d="M9.39014 4.00043L9.27875 13.3748C9.26153 14.8244 10.4227 16.0135 11.8724 16.0308C13.322 16.048 14.5112 14.8868 14.5284 13.4371L14.5289 13.3955" stroke="#111928" stroke-linecap="round"/>
<path id="Vector_3" d="M12.326 9.43567C12.3319 8.93865 12.7396 8.54052 13.2366 8.54643L15.9364 8.57851C16.4334 8.58441 16.8316 8.99211 16.8257 9.48914L16.8096 10.839C16.7949 12.0816 15.7756 13.0769 14.533 13.0622C13.2905 13.0474 12.2952 12.0281 12.3099 10.7856L12.326 9.43567Z" stroke="#111928"/>
<path id="Vector_4" d="M9.39026 4.00042L9.27887 13.3748C9.26165 14.8244 8.07252 15.9856 6.62287 15.9684C5.17323 15.9512 4.01202 14.762 4.02924 13.3124L4.02974 13.2707" stroke="#111928" stroke-linecap="round"/>
<path id="Vector_5" d="M6.32945 9.10729C6.33367 8.75227 6.04929 8.46105 5.69427 8.45684L2.48021 8.41865C2.1252 8.41443 1.83398 8.69881 1.82976 9.05382L1.81067 10.6609C1.79591 11.9034 2.79123 12.9227 4.03378 12.9374C5.27633 12.9522 6.29559 11.9569 6.31035 10.7143L6.32945 9.10729Z" stroke="#111928"/>
</g>
</svg>
