<svg width="28" height="28" viewBox="0 0 28 28" fill="none" xmlns="http://www.w3.org/2000/svg">
<g id="Group 8">
<circle id="Ellipse 152" cx="14" cy="14" r="14" fill="white"/>
<g id="vuesax/linear/shopping-cart">
<g id="shopping-cart">
<path id="Vector" d="M6.50024 6.49983H7.80525C8.61525 6.49983 9.25275 7.19733 9.18525 7.99983L8.56274 15.4698C8.45774 16.6923 9.42524 17.7423 10.6552 17.7423H18.6427C19.7227 17.7423 20.6677 16.8573 20.7502 15.7848L21.1552 10.1598C21.2452 8.91484 20.3002 7.90233 19.0477 7.90233H9.36525" stroke="#292D32" stroke-miterlimit="10" stroke-linecap="round" stroke-linejoin="round"/>
<path id="Vector_2" d="M17.1875 21.5C17.7053 21.5 18.125 21.0803 18.125 20.5625C18.125 20.0447 17.7053 19.625 17.1875 19.625C16.6697 19.625 16.25 20.0447 16.25 20.5625C16.25 21.0803 16.6697 21.5 17.1875 21.5Z" stroke="#292D32" stroke-miterlimit="10" stroke-linecap="round" stroke-linejoin="round"/>
<path id="Vector_3" d="M11.1873 21.5C11.705 21.5 12.1248 21.0803 12.1248 20.5625C12.1248 20.0447 11.705 19.625 11.1873 19.625C10.6695 19.625 10.2498 20.0447 10.2498 20.5625C10.2498 21.0803 10.6695 21.5 11.1873 21.5Z" stroke="#292D32" stroke-miterlimit="10" stroke-linecap="round" stroke-linejoin="round"/>
<path id="Vector_4" d="M11.75 10.9998H20.75" stroke="#292D32" stroke-miterlimit="10" stroke-linecap="round" stroke-linejoin="round"/>
</g>
</g>
</g>
</svg>
