<svg width="20" height="20" viewBox="0 0 20 20" fill="none" xmlns="http://www.w3.org/2000/svg">
<g id="vuesax/bold/gallery-edit">
<g id="gallery-edit">
<path id="Vector" d="M17.4749 0.833252H15.0249C13.9666 0.833252 13.3333 1.46659 13.3333 2.52492V4.97492C13.3333 6.03325 13.9666 6.66658 15.0249 6.66658H17.4749C18.5333 6.66658 19.1666 6.03325 19.1666 4.97492V2.52492C19.1666 1.46659 18.5333 0.833252 17.4749 0.833252ZM15.8416 5.47492C15.8166 5.49992 15.7583 5.53325 15.7166 5.53325L14.8499 5.65825C14.8249 5.66658 14.7916 5.66659 14.7666 5.66659C14.6416 5.66659 14.5333 5.62492 14.4583 5.54159C14.3583 5.44159 14.3166 5.29992 14.3416 5.14992L14.4666 4.28325C14.4749 4.24159 14.4999 4.18325 14.5249 4.15825L15.9416 2.74159C15.9666 2.79992 15.9916 2.86659 16.0166 2.93325C16.0499 2.99992 16.0833 3.05825 16.1166 3.11659C16.1416 3.16659 16.1749 3.21659 16.2083 3.24992C16.2416 3.29992 16.2749 3.34992 16.2999 3.37492C16.3166 3.39992 16.3249 3.40825 16.3333 3.41659C16.4083 3.50825 16.4916 3.59159 16.5666 3.64992C16.5833 3.66659 16.5999 3.68325 16.6083 3.68325C16.6499 3.71659 16.6999 3.75825 16.7333 3.78325C16.7833 3.81659 16.8249 3.84992 16.8749 3.87492C16.9333 3.90825 16.9999 3.94159 17.0666 3.97492C17.1333 4.00825 17.1999 4.03325 17.2583 4.04992L15.8416 5.47492ZM17.8333 3.48325L17.5666 3.74992C17.5499 3.77492 17.5249 3.78325 17.4999 3.78325C17.4916 3.78325 17.4833 3.78325 17.4749 3.78325C16.8749 3.60825 16.3999 3.13325 16.2249 2.53325C16.2166 2.49992 16.2249 2.46659 16.2499 2.44159L16.5249 2.16659C16.9749 1.71659 17.3999 1.72492 17.8416 2.16659C18.0666 2.39159 18.1749 2.60825 18.1749 2.82492C18.1666 3.04159 18.0583 3.25825 17.8333 3.48325Z" fill="#0E1C36"/>
<path id="Vector_2" d="M7.49994 8.65002C8.5953 8.65002 9.48327 7.76205 9.48327 6.66668C9.48327 5.57132 8.5953 4.68335 7.49994 4.68335C6.40457 4.68335 5.5166 5.57132 5.5166 6.66668C5.5166 7.76205 6.40457 8.65002 7.49994 8.65002Z" fill="#0E1C36"/>
<path id="Vector_3" d="M17.4751 6.66675H17.0834V10.5084L16.9751 10.4167C16.3251 9.85841 15.2751 9.85841 14.6251 10.4167L11.1584 13.3917C10.5084 13.9501 9.45842 13.9501 8.80841 13.3917L8.52508 13.1584C7.93341 12.6417 6.99175 12.5917 6.32508 13.0417L3.20841 15.1334C3.02508 14.6667 2.91675 14.1251 2.91675 13.4917V6.50841C2.91675 4.15841 4.15841 2.91675 6.50841 2.91675H13.3334V2.52508C13.3334 2.19175 13.3917 1.90841 13.5251 1.66675H6.50841C3.47508 1.66675 1.66675 3.47508 1.66675 6.50841V13.4917C1.66675 14.4001 1.82508 15.1917 2.13341 15.8584C2.85008 17.4417 4.38341 18.3334 6.50841 18.3334H13.4917C16.5251 18.3334 18.3334 16.5251 18.3334 13.4917V6.47508C18.0917 6.60842 17.8084 6.66675 17.4751 6.66675Z" fill="#0E1C36"/>
</g>
</g>
</svg>
