<svg width="32" height="32" viewBox="0 0 32 32" fill="none" xmlns="http://www.w3.org/2000/svg">
<g id="vuesax/bold/gallery-edit">
<g id="gallery-edit">
<path id="Vector" d="M27.96 1.33334H24.04C22.3467 1.33334 21.3334 2.34667 21.3334 4.04V7.96C21.3334 9.65334 22.3467 10.6667 24.04 10.6667H27.96C29.6534 10.6667 30.6667 9.65334 30.6667 7.96V4.04C30.6667 2.34667 29.6534 1.33334 27.96 1.33334ZM25.3467 8.76C25.3067 8.8 25.2134 8.85334 25.1467 8.85334L23.76 9.05334C23.72 9.06667 23.6667 9.06667 23.6267 9.06667C23.4267 9.06667 23.2534 9 23.1334 8.86667C22.9734 8.70667 22.9067 8.48 22.9467 8.24L23.1467 6.85334C23.16 6.78667 23.2 6.69334 23.24 6.65334L25.5067 4.38667C25.5467 4.48 25.5867 4.58667 25.6267 4.69334C25.68 4.8 25.7334 4.89334 25.7867 4.98667C25.8267 5.06667 25.88 5.14667 25.9334 5.2C25.9867 5.28 26.04 5.36 26.08 5.4C26.1067 5.44 26.12 5.45334 26.1334 5.46667C26.2534 5.61334 26.3867 5.74667 26.5067 5.84C26.5334 5.86667 26.56 5.89334 26.5734 5.89334C26.64 5.94667 26.72 6.01334 26.7734 6.05334C26.8534 6.10667 26.92 6.16 27 6.2C27.0934 6.25334 27.2 6.30667 27.3067 6.36C27.4134 6.41334 27.52 6.45334 27.6134 6.48L25.3467 8.76ZM28.5334 5.57334L28.1067 6C28.08 6.04 28.04 6.05334 28 6.05334C27.9867 6.05334 27.9734 6.05334 27.96 6.05334C27 5.77334 26.24 5.01334 25.96 4.05334C25.9467 4 25.96 3.94667 26 3.90667L26.44 3.46667C27.16 2.74667 27.84 2.76 28.5467 3.46667C28.9067 3.82667 29.08 4.17334 29.08 4.52C29.0667 4.86667 28.8934 5.21334 28.5334 5.57334Z" fill="#0E1C36"/>
<path id="Vector_2" d="M12 13.84C13.7526 13.84 15.1733 12.4192 15.1733 10.6667C15.1733 8.91408 13.7526 7.49333 12 7.49333C10.2474 7.49333 8.82666 8.91408 8.82666 10.6667C8.82666 12.4192 10.2474 13.84 12 13.84Z" fill="#0E1C36"/>
<path id="Vector_3" d="M27.96 10.6667H27.3333V16.8133L27.16 16.6667C26.12 15.7733 24.44 15.7733 23.4 16.6667L17.8533 21.4267C16.8133 22.32 15.1333 22.32 14.0933 21.4267L13.64 21.0533C12.6933 20.2267 11.1866 20.1467 10.12 20.8667L5.13329 24.2133C4.83996 23.4667 4.66663 22.6 4.66663 21.5867V10.4133C4.66663 6.65333 6.65329 4.66666 10.4133 4.66666H21.3333V4.04C21.3333 3.50666 21.4266 3.05333 21.64 2.66666H10.4133C5.55996 2.66666 2.66663 5.56 2.66663 10.4133V21.5867C2.66663 23.04 2.91996 24.3067 3.41329 25.3733C4.55996 27.9067 7.01329 29.3333 10.4133 29.3333H21.5866C26.44 29.3333 29.3333 26.44 29.3333 21.5867V10.36C28.9466 10.5733 28.4933 10.6667 27.96 10.6667Z" fill="#0E1C36"/>
</g>
</g>
</svg>
