<svg width="42" height="42" viewBox="0 0 42 42" fill="none" xmlns="http://www.w3.org/2000/svg">
<g id="Integration icons">
<path id="vector" d="M38.8668 21.3967C38.8668 19.9279 38.7452 18.856 38.482 17.7444H21.3665V24.3742H31.4129C31.2104 26.0218 30.1166 28.5031 27.686 30.1704L27.6519 30.3923L33.0635 34.5008L33.4384 34.5375C36.8817 31.421 38.8668 26.8356 38.8668 21.3967Z" fill="#4285F4"/>
<path id="vector_2" d="M21.3654 38.865C26.2873 38.865 30.4192 37.2769 33.4373 34.5376L27.6849 30.1705C26.1455 31.2226 24.0795 31.957 21.3654 31.957C16.5447 31.957 12.4532 28.8406 10.9947 24.5331L10.781 24.5509L5.15391 28.8187L5.08032 29.0192C8.07803 34.8551 14.2356 38.865 21.3654 38.865Z" fill="#34A853"/>
<path id="vector_3" d="M10.9958 24.5332C10.611 23.4216 10.3883 22.2305 10.3883 20.9999C10.3883 19.7691 10.611 18.5782 10.9756 17.4666L10.9654 17.2299L5.26782 12.8936L5.0814 12.9805C3.8459 15.4022 3.13696 18.1217 3.13696 20.9999C3.13696 23.8781 3.8459 26.5975 5.0814 29.0192L10.9958 24.5332Z" fill="#FBBC05"/>
<path id="vector_4" d="M21.3655 10.0428C24.7885 10.0428 27.0976 11.4918 28.4142 12.7027L33.559 7.7799C30.3993 4.90166 26.2874 3.13501 21.3655 3.13501C14.2356 3.13501 8.07805 7.14467 5.08032 12.9805L10.9745 17.4667C12.4533 13.1592 16.5448 10.0428 21.3655 10.0428Z" fill="#EB4335"/>
</g>
</svg>
