<svg width="24" height="24" viewBox="0 0 24 24" fill="none" xmlns="http://www.w3.org/2000/svg">
<g id="vuesax/bulk/heart-remove">
<g id="heart-remove">
<path id="Vector" opacity="0.4" d="M22 8.69C22 9.88 21.81 10.98 21.48 12C21.27 12.67 21 13.31 20.68 13.9C19.8 12.97 18.57 12.4 17.2 12.4C14.55 12.4 12.4 14.55 12.4 17.2C12.4 18.43 12.87 19.55 13.63 20.4C13.26 20.57 12.92 20.71 12.62 20.81C12.28 20.93 11.72 20.93 11.38 20.81C8.97001 19.99 4.10002 17 2.52002 12C2.19002 10.98 2 9.88 2 8.69C2 5.6 4.49 3.10001 7.56 3.10001C9.37 3.10001 10.99 3.97999 12 5.32999C13.01 3.97999 14.63 3.10001 16.44 3.10001C19.51 3.10001 22 5.6 22 8.69Z" fill="#C668AA"/>
<path id="Vector_2" d="M20.6899 13.92C20.6799 13.92 20.6799 13.91 20.6799 13.91V13.9C19.7999 12.98 18.5699 12.4 17.1999 12.4C14.5499 12.4 12.3999 14.55 12.3999 17.2C12.3999 18.43 12.8699 19.55 13.6299 20.4C14.5099 21.38 15.7799 22 17.1999 22C19.8499 22 21.9999 19.85 21.9999 17.2C21.9999 15.93 21.4999 14.78 20.6899 13.92ZM19.0099 19.07C18.8699 19.21 18.6699 19.29 18.4799 19.29C18.2899 19.29 18.0999 19.21 17.9499 19.07L17.2099 18.33L16.4499 19.1C16.2999 19.24 16.1099 19.32 15.9199 19.32C15.8199 19.32 15.7299 19.3 15.6399 19.26C15.5499 19.23 15.4599 19.17 15.3899 19.1C15.0899 18.8 15.0899 18.33 15.3899 18.04L16.1499 17.27L15.4199 16.53C15.1199 16.24 15.1199 15.76 15.4199 15.47C15.7099 15.18 16.1799 15.18 16.4799 15.47L17.2099 16.21L17.9199 15.5C18.2199 15.21 18.6899 15.21 18.9799 15.5C19.1499 15.67 19.2199 15.89 19.1899 16.11C19.1799 16.28 19.1099 16.44 18.9799 16.56L18.2699 17.27L19.0099 18.01C19.3099 18.3 19.3099 18.77 19.0099 19.07Z" fill="#C668AA"/>
</g>
</g>
</svg>
