<svg width="21" height="20" viewBox="0 0 21 20" fill="none" xmlns="http://www.w3.org/2000/svg">
<g id="vuesax/linear/layer">
<g id="layer">
<path id="Vector" d="M11.3416 2.43335L16.2583 4.61668C17.6749 5.24168 17.6749 6.27502 16.2583 6.90002L11.3416 9.08335C10.7833 9.33335 9.8666 9.33335 9.30827 9.08335L4.3916 6.90002C2.97493 6.27502 2.97493 5.24168 4.3916 4.61668L9.30827 2.43335C9.8666 2.18335 10.7833 2.18335 11.3416 2.43335Z" stroke="#111928" stroke-linecap="round" stroke-linejoin="round"/>
<path id="Vector_2" d="M3 9.16663C3 9.86663 3.525 10.675 4.16667 10.9583L9.825 13.475C10.2583 13.6666 10.75 13.6666 11.175 13.475L16.8333 10.9583C17.475 10.675 18 9.86663 18 9.16663" stroke="#111928" stroke-linecap="round" stroke-linejoin="round"/>
<path id="Vector_3" d="M3 13.3334C3 14.1084 3.45833 14.8084 4.16667 15.125L9.825 17.6417C10.2583 17.8334 10.75 17.8334 11.175 17.6417L16.8333 15.125C17.5417 14.8084 18 14.1084 18 13.3334" stroke="#111928" stroke-linecap="round" stroke-linejoin="round"/>
</g>
</g>
</svg>
