<svg width="19" height="20" viewBox="0 0 19 20" fill="none" xmlns="http://www.w3.org/2000/svg">
<g id="Linear / Essentional, UI / Ferris Wheel">
<circle id="Vector" cx="9.60317" cy="9.25005" r="1.5" transform="rotate(0.680732 9.60317 9.25005)" stroke="#111928"/>
<path id="Vector_2" d="M16.009 6.70097C16.0041 7.11515 15.6644 7.44692 15.2502 7.442C14.836 7.43708 14.5042 7.09733 14.5092 6.68314C14.5141 6.26896 14.8538 5.93719 15.268 5.94211C15.6822 5.94703 16.014 6.28678 16.009 6.70097Z" stroke="#111928"/>
<path id="Vector_3" d="M15.9334 13.0755C15.9284 13.4897 15.5887 13.8215 15.1745 13.8166C14.7603 13.8117 14.4286 13.4719 14.4335 13.0577C14.4384 12.6435 14.7781 12.3118 15.1923 12.3167C15.6065 12.3216 15.9383 12.6614 15.9334 13.0755Z" stroke="#111928"/>
<path id="Vector_4" d="M4.75978 6.56733C4.75486 6.98151 4.41511 7.31329 4.00092 7.30836C3.58674 7.30344 3.25497 6.96369 3.25989 6.54951C3.26481 6.13532 3.60456 5.80355 4.01875 5.80847C4.43293 5.81339 4.7647 6.15314 4.75978 6.56733Z" stroke="#111928"/>
<path id="Vector_5" d="M4.6841 12.9419C4.67918 13.3561 4.33943 13.6878 3.92524 13.6829C3.51106 13.678 3.17928 13.3382 3.1842 12.924C3.18913 12.5099 3.52888 12.1781 3.94306 12.183C4.35725 12.1879 4.68902 12.5277 4.6841 12.9419Z" stroke="#111928"/>
<path id="Vector_6" d="M9.6789 2.8755C10.0931 2.88042 10.4249 3.22018 10.4199 3.63436C10.415 4.04854 10.0753 4.38032 9.66108 4.3754C9.2469 4.37047 8.91512 4.03072 8.92004 3.61654C8.92496 3.20235 9.26472 2.87058 9.6789 2.8755Z" stroke="#111928"/>
<path id="Vector_7" d="M9.53632 14.8746C9.95051 14.8796 10.2823 15.2193 10.2774 15.6335C10.2724 16.0477 9.93269 16.3795 9.5185 16.3745C9.10432 16.3696 8.77254 16.0299 8.77747 15.6157C8.78239 15.2015 9.12214 14.8697 9.53632 14.8746Z" stroke="#111928"/>
<path id="Vector_8" d="M10.7104 10.7633L14.38 17.5574" stroke="#111928" stroke-linecap="round"/>
<path id="Vector_9" d="M8.46045 10.7366L4.63052 17.4415" stroke="#111928" stroke-linecap="round"/>
<path id="Vector_10" d="M8.59061 3.82496C9.26635 3.46685 10.0777 3.47649 10.7447 3.85056L14.3169 5.85377C15.0351 6.25656 15.476 7.01955 15.4662 7.84298L15.4222 11.5459C15.4124 12.3694 14.9536 13.1217 14.2259 13.5073L10.6072 15.4251C9.93149 15.7832 9.12012 15.7735 8.45309 15.3995L4.88096 13.3963C4.16271 12.9935 3.72188 12.2305 3.73166 11.407L3.77566 7.70408C3.78544 6.88065 4.24428 6.12835 4.9719 5.74274L8.59061 3.82496Z" stroke="#111928"/>
</g>
</svg>
