<svg width="15" height="16" viewBox="0 0 15 16" fill="none" xmlns="http://www.w3.org/2000/svg">
<g id="Group 48096247">
<path id="Vector" d="M1.24509 1.04251L1.2451 1.04258C1.24508 1.0425 1.24517 1.04289 1.24539 1.04388L1.24627 1.04782L1.24969 1.06263C1.25272 1.07551 1.25726 1.09435 1.26345 1.11882C1.27581 1.16776 1.29474 1.23921 1.32127 1.33054C1.37432 1.5132 1.45775 1.77535 1.57982 2.09606C1.81926 2.7251 2.20716 3.57891 2.80575 4.49998C2.92655 4.44662 3.05992 4.41489 3.20232 4.41658C3.74024 4.42297 4.1726 4.86562 4.16621 5.40356C4.16575 5.44239 4.16262 5.48027 4.15745 5.51722C4.69515 5.52388 5.12713 5.96653 5.12074 6.50427C5.12043 6.5301 5.11885 6.55542 5.11631 6.58024C5.14118 6.57829 5.16653 6.57731 5.19236 6.57761C5.73028 6.58401 6.16264 7.02675 6.15624 7.56468C6.1547 7.69484 6.12555 7.81694 6.07793 7.92841C6.59835 8.30173 7.15308 8.64148 7.73281 8.94001C8.31946 8.65534 8.88211 8.32886 9.41125 7.96802C9.3663 7.85544 9.34006 7.73269 9.34161 7.60253C9.348 7.0646 9.79075 6.63225 10.3287 6.63864C10.3545 6.63895 10.3798 6.64053 10.4046 6.64308C10.4027 6.61821 10.4017 6.59285 10.402 6.56702C10.4084 6.02928 10.8508 5.59702 11.3885 5.60313C11.3842 5.56608 11.382 5.52813 11.3824 5.4893C11.3888 4.95136 11.8316 4.51911 12.3695 4.5255C12.5119 4.52719 12.6445 4.56209 12.764 4.6183C13.3843 3.71172 13.7924 2.86736 14.0467 2.24419C14.1763 1.92647 14.266 1.66637 14.3233 1.48502C14.352 1.39435 14.3726 1.32337 14.3862 1.27474C14.3929 1.25042 14.3979 1.2317 14.4013 1.21889L14.405 1.20417L14.406 1.20025L14.4063 1.19896L14.4063 1.19889C14.4383 1.06476 14.5735 0.981427 14.7073 1.01345C14.7074 1.01346 14.7074 1.01347 14.7074 1.01347L14.69 1.08641C14.7839 1.1088 14.8421 1.20298 14.8198 1.29697L1.24509 1.04251ZM1.24509 1.04251C1.21635 0.907805 1.08343 0.820887 0.948486 0.849995M1.24509 1.04251L2.41184 4.81189C1.1311 2.85744 0.771969 1.22171 0.756018 1.14626L0.829396 1.13074L0.756032 1.14633C0.72734 1.01124 0.813695 0.878801 0.948486 0.849995M0.948486 0.849995C0.948519 0.849988 0.948552 0.849981 0.948585 0.849974L0.96423 0.923324L0.948386 0.850017C0.948419 0.85001 0.948452 0.850002 0.948486 0.849995ZM2.71522 5.38632C2.71833 5.12425 2.93421 4.91343 3.19638 4.91654C3.45855 4.91966 3.66936 5.13555 3.66625 5.39762C3.66313 5.65978 3.44724 5.87059 3.18508 5.86748C2.92292 5.86436 2.7121 5.64848 2.71522 5.38632ZM9.31943 11.1019L9.29709 12.9816C9.28653 13.8704 8.55466 14.5851 7.66586 14.5745C6.77706 14.564 6.06238 13.8321 6.07294 12.9433L6.09527 11.0636C6.10584 10.1747 6.83771 9.46002 7.7265 9.47058C8.6153 9.48114 9.32999 10.213 9.31943 11.1019ZM12.3636 5.02546C12.6257 5.02858 12.8365 5.24447 12.8334 5.50654C12.8303 5.7687 12.6144 5.97951 12.3523 5.9764C12.0901 5.97328 11.8793 5.7574 11.8824 5.49524C11.8855 5.23317 12.1014 5.02235 12.3636 5.02546ZM11.3831 6.1031C11.6452 6.10622 11.856 6.3221 11.8529 6.58426C11.8498 6.84642 11.6339 7.05724 11.3718 7.05413C11.1097 7.05101 10.8989 6.83513 10.902 6.57296C10.9051 6.3108 11.121 6.09999 11.3831 6.1031ZM10.3227 7.1386C10.5848 7.14172 10.7956 7.3576 10.7925 7.61977C10.7894 7.88184 10.5735 8.09266 10.3114 8.08954C10.0493 8.08643 9.83846 7.87053 9.84157 7.60847C9.84468 7.34631 10.0606 7.13549 10.3227 7.1386ZM5.65628 7.55874C5.65317 7.8208 5.43729 8.03163 5.17512 8.02852C4.91304 8.0254 4.70222 7.80951 4.70534 7.54744C4.70845 7.28527 4.92435 7.07446 5.18642 7.07758C5.44858 7.08069 5.6594 7.29658 5.65628 7.55874ZM4.62078 6.49833C4.61766 6.7605 4.40176 6.97131 4.1397 6.9682C3.87754 6.96508 3.66672 6.74919 3.66983 6.48704C3.67295 6.22488 3.88884 6.01406 4.151 6.01717C4.41306 6.02029 4.62389 6.23617 4.62078 6.49833Z" fill="#111928" stroke="#111928" stroke-width="0.15"/>
<path id="Vector_2" d="M6.67908 11.162L6.65892 12.8588C6.65219 13.425 7.10717 13.8909 7.67329 13.8976C8.23942 13.9044 8.70534 13.4494 8.71206 12.8832L8.73222 11.1864C8.73895 10.6203 8.28397 10.1543 7.71785 10.1476C7.15173 10.1409 6.68581 10.5959 6.67908 11.162ZM8.23226 11.1804L8.2121 12.8772C8.20865 13.1676 7.9695 13.4011 7.67923 13.3977C7.38897 13.3942 7.15543 13.1551 7.15888 12.8647L7.17904 11.1679C7.18249 10.8777 7.42164 10.6441 7.71191 10.6476C8.00218 10.651 8.23571 10.8902 8.23226 11.1804Z" fill="#111928" stroke="#111928" stroke-width="0.15"/>
</g>
</svg>
