<svg width="25" height="24" viewBox="0 0 25 24" fill="none" xmlns="http://www.w3.org/2000/svg">
<path d="M12.8999 6.44V9.77" stroke="#1E1E1E" stroke-width="1.5" stroke-miterlimit="10" stroke-linecap="round"/>
<path d="M12.9198 2C9.2398 2 6.2598 4.98 6.2598 8.66V10.76C6.2598 11.44 5.9798 12.46 5.6298 13.04L4.3598 15.16C3.5798 16.47 4.1198 17.93 5.5598 18.41C10.3398 20 15.5098 20 20.2898 18.41C21.6398 17.96 22.2198 16.38 21.4898 15.16L20.2198 13.04C19.8698 12.46 19.5898 11.43 19.5898 10.76V8.66C19.5798 5 16.5798 2 12.9198 2Z" stroke="#1E1E1E" stroke-width="1.5" stroke-miterlimit="10" stroke-linecap="round"/>
<path d="M16.2298 18.82C16.2298 20.65 14.7298 22.15 12.8998 22.15C11.9898 22.15 11.1498 21.77 10.5498 21.17C9.94982 20.57 9.56982 19.73 9.56982 18.82" stroke="#1E1E1E" stroke-width="1.5" stroke-miterlimit="10"/>
</svg>
