<svg width="19" height="20" viewBox="0 0 19 20" fill="none" xmlns="http://www.w3.org/2000/svg">
<g id="Linear / Essentional, UI / Cosmetic">
<path id="Vector" d="M8.64508 8.86616C8.67215 6.58815 10.5408 4.7634 12.8188 4.79046C15.0968 4.81753 16.9216 6.68617 16.8945 8.96418C16.8674 11.2422 14.9988 13.0669 12.7208 13.0399C10.4428 13.0128 8.61802 11.1442 8.64508 8.86616Z" stroke="#111928"/>
<path id="Vector_2" d="M12.6851 16.0397L12.7208 13.0399M12.6851 16.0397L14.935 16.0664M12.6851 16.0397L10.4353 16.0129" stroke="#111928" stroke-linecap="round" stroke-linejoin="round"/>
<path id="Vector_3" d="M1.89111 9.16095L1.89705 8.66098C1.62093 8.6577 1.39443 8.87889 1.39115 9.15501L1.89111 9.16095ZM6.3908 9.21441L6.89076 9.22035C6.89404 8.94423 6.67286 8.71773 6.39674 8.71445L6.3908 9.21441ZM1.88517 9.66091L6.38486 9.71438L6.39674 8.71445L1.89705 8.66098L1.88517 9.66091ZM5.89083 9.20847L5.83737 13.7082L6.8373 13.72L6.89076 9.22035L5.89083 9.20847ZM2.33761 13.6666L2.39108 9.16689L1.39115 9.15501L1.33769 13.6547L2.33761 13.6666ZM4.0667 15.4372C3.10027 15.4258 2.32613 14.633 2.33761 13.6666L1.33769 13.6547C1.31964 15.1734 2.53614 16.4191 4.05482 16.4372L4.0667 15.4372ZM5.83737 13.7082C5.82589 14.6746 5.03313 15.4487 4.0667 15.4372L4.05482 16.4372C5.5735 16.4552 6.81925 15.2387 6.8373 13.72L5.83737 13.7082Z" fill="#111928"/>
<path id="Vector_4" d="M2.64112 9.16986L5.64091 9.2055L5.68886 5.16931C5.69549 4.61181 5.1131 4.24224 4.6115 4.48564L3.1027 5.21777C2.84712 5.34178 2.68354 5.59955 2.68017 5.88361L2.64112 9.16986Z" stroke="#111928"/>
</g>
</svg>
