<svg width="21" height="20" viewBox="0 0 21 20" fill="none" xmlns="http://www.w3.org/2000/svg">
<g id="vuesax/linear/ranking">
<g id="ranking">
<path id="Vector" d="M7.72508 11.6666H3.83341C2.91675 11.6666 2.16675 12.4166 2.16675 13.3333V18.3333H7.72508V11.6666Z" stroke="#111928" stroke-miterlimit="10" stroke-linecap="round" stroke-linejoin="round"/>
<path id="Vector_2" d="M11.6082 8.33337H9.38322C8.46655 8.33337 7.71655 9.08337 7.71655 10V18.3334H13.2749V10C13.2749 9.08337 12.5332 8.33337 11.6082 8.33337Z" stroke="#111928" stroke-miterlimit="10" stroke-linecap="round" stroke-linejoin="round"/>
<path id="Vector_3" d="M17.1666 14.1666H13.2749V18.3333H18.8332V15.8333C18.8332 14.9166 18.0832 14.1666 17.1666 14.1666Z" stroke="#111928" stroke-miterlimit="10" stroke-linecap="round" stroke-linejoin="round"/>
<g id="Group">
<path id="Vector_4" d="M10.9333 1.72497L11.3749 2.60831C11.4333 2.73331 11.5916 2.84997 11.7249 2.86664L12.5249 2.99997C13.0333 3.08331 13.1583 3.45829 12.7916 3.81662L12.1666 4.44162C12.0583 4.54996 11.9999 4.74996 12.0333 4.89163L12.2083 5.65831C12.3499 6.26664 12.0249 6.49998 11.4916 6.18331L10.7416 5.74165C10.6083 5.65831 10.3833 5.65831 10.2499 5.74165L9.49995 6.18331C8.96661 6.49998 8.64161 6.26664 8.78328 5.65831L8.95828 4.89163C8.99162 4.74996 8.93328 4.54162 8.82495 4.44162L8.20828 3.82497C7.84161 3.4583 7.95828 3.09162 8.47495 3.00829L9.27495 2.87498C9.40828 2.84998 9.56661 2.73331 9.62495 2.61665L10.0666 1.73329C10.3083 1.24996 10.6916 1.24997 10.9333 1.72497Z" stroke="#111928" stroke-linecap="round" stroke-linejoin="round"/>
</g>
</g>
</g>
</svg>
