<svg width="20" height="20" viewBox="0 0 20 20" fill="none" xmlns="http://www.w3.org/2000/svg">
<g id="Linear / Shopping, Ecommerce / Bag 5">
<path id="Vector" d="M3.77632 12.1549C4.15524 14.1739 4.3447 15.1834 5.00254 15.84C5.12413 15.9613 5.25591 16.072 5.39644 16.1708C6.15678 16.7053 7.18385 16.7175 9.23798 16.7419L10.5151 16.7571C12.5692 16.7815 13.5963 16.7937 14.3691 16.2774C14.512 16.182 14.6463 16.0745 14.7708 15.956C15.444 15.3153 15.6574 14.3106 16.0842 12.3011C16.6969 9.4162 17.0033 7.97373 16.3497 6.94125C16.2314 6.75431 16.0928 6.58102 15.9363 6.42457C15.0724 5.56047 13.5978 5.54295 10.6488 5.50791L9.37164 5.49274C6.42257 5.4577 4.94803 5.44018 4.06377 6.2835C3.90366 6.4362 3.76093 6.60614 3.63819 6.79022C2.96032 7.80688 3.23232 9.25622 3.77632 12.1549Z" stroke="#111928"/>
<circle id="Vector_2" cx="12.2242" cy="8.52683" r="0.75" transform="rotate(0.680732 12.2242 8.52683)" fill="#111928"/>
<circle id="Vector_3" cx="7.72468" cy="8.47337" r="0.75" transform="rotate(0.680732 7.72468 8.47337)" fill="#111928"/>
<path id="Vector_4" d="M7.76026 5.47357L7.76917 4.72363C7.78393 3.48107 8.80319 2.48575 10.0457 2.50052C11.2883 2.51528 12.2836 3.53454 12.2688 4.77709L12.2599 5.52704" stroke="#111928" stroke-linecap="round"/>
</g>
</svg>
