<svg width="100" height="100" viewBox="0 0 100 100" fill="none" xmlns="http://www.w3.org/2000/svg">
<g id="vuesax/bulk/truck-time">
<g id="truck-time">
<path id="Vector" d="M20.8333 4.16667C16.9167 4.16667 13.2917 5.54169 10.4167 7.83335C6.58334 10.875 4.16667 15.5833 4.16667 20.8333C4.16667 30.0417 11.625 37.5 20.8333 37.5C25.0417 37.5 28.8751 35.9167 31.8334 33.3333C35.2917 30.2917 37.5 25.8333 37.5 20.8333C37.5 11.625 30.0417 4.16667 20.8333 4.16667ZM25 21.875C25 22.9583 24.4167 24.0001 23.5001 24.5417L18.2917 27.6667C17.7917 27.9584 17.25 28.125 16.7084 28.125C15.6667 28.125 14.625 27.5834 14.0417 26.6251C13.1667 25.1251 13.625 23.2083 15.125 22.3333L18.8334 20.1251V15.625C18.8334 13.9167 20.2501 12.5 21.9584 12.5C23.6668 12.5 25.0834 13.9167 25.0834 15.625V21.875H25Z" fill="#C668AA"/>
<path id="Vector_2" opacity="0.4" d="M62.5 12.5V50C62.5 54.5833 58.75 58.3333 54.1667 58.3333H8.33333V31.75C11.375 35.375 16.0418 37.625 21.2084 37.5C25.4168 37.4167 29.2083 35.7917 32.0417 33.0833C33.3333 32 34.4168 30.625 35.2501 29.125C36.7501 26.5833 37.5833 23.5832 37.5 20.4582C37.375 15.5832 35.2084 11.2917 31.8334 8.33333H58.3333C60.625 8.33333 62.5 10.2083 62.5 12.5Z" fill="#C668AA"/>
<path id="Vector_3" d="M91.6667 58.3333V70.8333C91.6667 77.75 86.0833 83.3333 79.1667 83.3333H75C75 78.75 71.25 75 66.6667 75C62.0833 75 58.3333 78.75 58.3333 83.3333H41.6667C41.6667 78.75 37.9167 75 33.3333 75C28.75 75 25 78.75 25 83.3333H20.8333C13.9167 83.3333 8.33333 77.75 8.33333 70.8333V58.3333H54.1667C58.75 58.3333 62.5 54.5833 62.5 50V20.8333H70.1668C73.1668 20.8333 75.9167 22.4584 77.4167 25.0417L84.5416 37.5H79.1667C76.875 37.5 75 39.375 75 41.6667V54.1667C75 56.4583 76.875 58.3333 79.1667 58.3333H91.6667Z" fill="#C668AA"/>
<path id="Vector_4" opacity="0.4" d="M33.3333 91.6667C37.9357 91.6667 41.6667 87.9357 41.6667 83.3333C41.6667 78.731 37.9357 75 33.3333 75C28.731 75 25 78.731 25 83.3333C25 87.9357 28.731 91.6667 33.3333 91.6667Z" fill="#C668AA"/>
<path id="Vector_5" opacity="0.4" d="M66.6667 91.6667C71.269 91.6667 75 87.9357 75 83.3333C75 78.731 71.269 75 66.6667 75C62.0643 75 58.3333 78.731 58.3333 83.3333C58.3333 87.9357 62.0643 91.6667 66.6667 91.6667Z" fill="#C668AA"/>
<path id="Vector_6" opacity="0.4" d="M91.6667 52.2085V58.3333H79.1667C76.875 58.3333 75 56.4583 75 54.1667V41.6667C75 39.375 76.875 37.5 79.1667 37.5H84.5416L90.5833 48.0832C91.2916 49.3332 91.6667 50.7501 91.6667 52.2085Z" fill="#C668AA"/>
</g>
</g>
</svg>
