<svg width="19" height="20" viewBox="0 0 19 20" fill="none" xmlns="http://www.w3.org/2000/svg">
<g id="Linear / Essentional, UI / Hanger 2" clip-path="url(#clip0_2100_4281)">
<path id="Vector" d="M7.75584 3.91027C7.76524 3.11956 8.48602 2.48703 9.36574 2.49748C10.2455 2.50793 10.951 3.15741 10.9416 3.94813C10.9372 4.32027 10.7987 4.65766 10.5616 4.90948C10.1076 5.3918 9.43182 5.87498 9.42431 6.50755L9.42177 6.72087M9.42177 6.72087C9.97044 6.72101 10.5194 6.87993 10.9785 7.19739L16.5078 11.0211C17.4797 11.6932 16.9434 13.0883 15.7187 13.0737L13.9957 13.0532M9.42177 6.72087C8.87763 6.72073 8.33379 6.87676 7.87823 7.18918L2.51236 10.8691C1.55039 11.5289 2.06199 12.9114 3.27341 12.9258L4.99638 12.9463" stroke="#111928" stroke-linecap="round"/>
<path id="Vector_2" d="M4.97852 14.4462C4.99532 13.0321 5.00372 12.3251 5.44825 11.891C5.89278 11.4569 6.59983 11.4653 8.01395 11.4821L11.0137 11.5177C12.4279 11.5345 13.1349 11.5429 13.569 11.9875C14.0031 12.432 13.9947 13.139 13.9779 14.5532C13.9611 15.9673 13.9527 16.6743 13.5082 17.1084C13.0636 17.5425 12.3566 17.5341 10.9425 17.5173L7.94266 17.4817C6.52855 17.4649 5.82149 17.4565 5.3874 17.0119C4.95332 16.5674 4.96172 15.8603 4.97852 14.4462Z" stroke="#111928"/>
</g>
<defs>
<clipPath id="clip0_2100_4281">
<rect width="18" height="18" fill="white" transform="translate(0.63916 0.893707) rotate(0.680732)"/>
</clipPath>
</defs>
</svg>
